<svg xmlns="http://www.w3.org/2000/svg" xmlns:xlink="http://www.w3.org/1999/xlink" width="500" zoomAndPan="magnify" viewBox="0 0 375 374.999991" height="500" preserveAspectRatio="xMidYMid meet" version="1.0"><defs><clipPath id="id1"><path d="M 62 33.792969 L 312.992188 33.792969 L 312.992188 341.292969 L 62 341.292969 Z M 62 33.792969 " clip-rule="nonzero"/></clipPath><clipPath id="id2"><path d="M 62 33.792969 L 312.992188 33.792969 L 312.992188 341.292969 L 62 341.292969 Z M 62 33.792969 " clip-rule="nonzero"/></clipPath></defs><path fill="#f7b024" d="M 187.292969 39.675781 L 68.039062 39.675781 L 68.039062 198.941406 C 68.039062 198.941406 68.039062 281 187.4375 334.824219 C 306.839844 281 306.839844 198.941406 306.839844 198.941406 L 306.839844 123.351562 C 306.691406 77.175781 269.242188 39.675781 223.128906 39.675781 Z M 187.292969 39.675781 " fill-opacity="1" fill-rule="nonzero"/><g clip-path="url(#id1)"><path fill="#ffffff" d="M 187.292969 341.292969 L 184.941406 340.265625 C 150.136719 324.53125 103.285156 296 77.734375 249.53125 C 62.3125 221.292969 62.164062 199.824219 62.164062 198.941406 L 62.164062 33.792969 L 223.128906 33.792969 C 272.472656 33.792969 312.566406 73.941406 312.566406 123.351562 L 312.566406 198.941406 C 312.566406 199.824219 312.421875 221.292969 297 249.53125 C 271.59375 296 224.742188 324.53125 189.789062 340.265625 Z M 73.914062 45.558594 L 73.914062 199.089844 C 73.914062 199.234375 74.207031 218.941406 88.453125 244.675781 C 101.523438 268.207031 129.28125 301.734375 187.292969 328.5 C 220.042969 313.351562 262.78125 286.882812 286.277344 244.675781 C 300.523438 218.941406 300.816406 199.234375 300.816406 199.089844 L 300.816406 123.351562 C 300.816406 80.414062 266.011719 45.558594 223.128906 45.558594 Z M 73.914062 45.558594 " fill-opacity="1" fill-rule="nonzero"/></g><path fill="#f58c26" d="M 187.292969 39.675781 L 68.039062 39.675781 L 68.039062 198.941406 C 68.039062 198.941406 68.039062 208.351562 72.738281 222.914062 C 81.550781 224.53125 90.65625 225.414062 99.910156 225.414062 C 182.003906 225.414062 248.535156 158.792969 248.535156 76.589844 C 248.535156 64.824219 247.210938 53.351562 244.570312 42.324219 C 237.8125 40.558594 230.617188 39.53125 223.273438 39.53125 L 187.292969 39.53125 Z M 187.292969 39.675781 " fill-opacity="1" fill-rule="nonzero"/><path fill="#ffffff" d="M 194.636719 97.03125 C 181.859375 123.648438 183.769531 143.058594 200.65625 158.792969 C 217.546875 174.53125 236.785156 174.53125 263.367188 158.941406 C 269.976562 178.207031 264.6875 216.292969 232.96875 239.234375 C 203.886719 260.265625 163.792969 258.648438 136.332031 235.414062 C 108.574219 211.882812 100.347656 172.765625 116.503906 140.117188 C 134.570312 103.648438 172.019531 93.207031 194.636719 97.03125 Z M 194.636719 97.03125 " fill-opacity="1" fill-rule="nonzero"/><g clip-path="url(#id2)"><path fill="#ffffff" d="M 187.292969 341.292969 L 184.941406 340.265625 C 150.136719 324.53125 103.285156 296 77.734375 249.53125 C 62.3125 221.292969 62.164062 199.824219 62.164062 198.941406 L 62.164062 33.792969 L 223.128906 33.792969 C 272.472656 33.792969 312.566406 73.941406 312.566406 123.351562 L 312.566406 198.941406 C 312.566406 199.824219 312.421875 221.292969 297 249.53125 C 271.59375 296 224.742188 324.53125 189.789062 340.265625 Z M 73.914062 45.558594 L 73.914062 199.089844 C 73.914062 199.234375 74.207031 218.941406 88.453125 244.675781 C 101.523438 268.207031 129.28125 301.734375 187.292969 328.5 C 220.042969 313.351562 262.78125 286.882812 286.277344 244.675781 C 300.523438 218.941406 300.816406 199.234375 300.816406 199.089844 L 300.816406 123.351562 C 300.816406 80.414062 266.011719 45.558594 223.128906 45.558594 Z M 73.914062 45.558594 " fill-opacity="1" fill-rule="nonzero"/></g></svg>