<svg xmlns="http://www.w3.org/2000/svg" xmlns:xlink="http://www.w3.org/1999/xlink" width="500" zoomAndPan="magnify" viewBox="0 0 375 74.999997" height="100" preserveAspectRatio="xMidYMid meet" version="1.0"><defs><g/><clipPath id="id1"><path d="M 25.089844 6.835938 L 74.589844 6.835938 L 74.589844 67.585938 L 25.089844 67.585938 Z M 25.089844 6.835938 " clip-rule="nonzero"/></clipPath><clipPath id="id2"><path d="M 25.089844 6.835938 L 74.589844 6.835938 L 74.589844 67.585938 L 25.089844 67.585938 Z M 25.089844 6.835938 " clip-rule="nonzero"/></clipPath></defs><path fill="#f7b024" d="M 49.824219 8 L 26.332031 8 L 26.332031 39.464844 C 26.332031 39.464844 26.332031 55.675781 49.855469 66.308594 C 73.378906 55.675781 73.378906 39.464844 73.378906 39.464844 L 73.378906 24.53125 C 73.347656 15.40625 65.96875 8 56.886719 8 Z M 49.824219 8 " fill-opacity="1" fill-rule="nonzero"/><g clip-path="url(#id1)"><path fill="#555555" d="M 49.824219 67.585938 L 49.363281 67.382812 C 42.503906 64.273438 33.277344 58.640625 28.242188 49.457031 C 25.203125 43.878906 25.175781 39.636719 25.175781 39.464844 L 25.175781 6.835938 L 56.886719 6.835938 C 66.605469 6.835938 74.503906 14.769531 74.503906 24.53125 L 74.503906 39.464844 C 74.503906 39.636719 74.476562 43.878906 71.4375 49.457031 C 66.433594 58.640625 57.203125 64.273438 50.316406 67.382812 Z M 27.488281 9.160156 L 27.488281 39.492188 C 27.488281 39.523438 27.546875 43.414062 30.355469 48.5 C 32.929688 53.148438 38.398438 59.773438 49.824219 65.058594 C 56.277344 62.066406 64.695312 56.835938 69.328125 48.5 C 72.132812 43.414062 72.191406 39.523438 72.191406 39.492188 L 72.191406 24.53125 C 72.191406 16.046875 65.332031 9.160156 56.886719 9.160156 Z M 27.488281 9.160156 " fill-opacity="1" fill-rule="nonzero"/></g><path fill="#f58c26" d="M 49.824219 8 L 26.332031 8 L 26.332031 39.464844 C 26.332031 39.464844 26.332031 41.324219 27.257812 44.199219 C 28.992188 44.519531 30.789062 44.695312 32.609375 44.695312 C 48.785156 44.695312 61.890625 31.53125 61.890625 15.292969 C 61.890625 12.96875 61.628906 10.703125 61.109375 8.523438 C 59.777344 8.171875 58.359375 7.96875 56.914062 7.96875 L 49.824219 7.96875 Z M 49.824219 8 " fill-opacity="1" fill-rule="nonzero"/><path fill="#555555" d="M 51.273438 19.332031 C 48.753906 24.589844 49.132812 28.421875 52.457031 31.53125 C 55.785156 34.640625 59.574219 34.640625 64.8125 31.5625 C 66.113281 35.367188 65.074219 42.890625 58.824219 47.425781 C 53.09375 51.578125 45.195312 51.257812 39.785156 46.667969 C 34.316406 42.019531 32.699219 34.292969 35.878906 27.84375 C 39.4375 20.636719 46.816406 18.574219 51.273438 19.332031 Z M 51.273438 19.332031 " fill-opacity="1" fill-rule="nonzero"/><g clip-path="url(#id2)"><path fill="#555555" d="M 49.824219 67.585938 L 49.363281 67.382812 C 42.503906 64.273438 33.277344 58.640625 28.242188 49.457031 C 25.203125 43.878906 25.175781 39.636719 25.175781 39.464844 L 25.175781 6.835938 L 56.886719 6.835938 C 66.605469 6.835938 74.503906 14.769531 74.503906 24.53125 L 74.503906 39.464844 C 74.503906 39.636719 74.476562 43.878906 71.4375 49.457031 C 66.433594 58.640625 57.203125 64.273438 50.316406 67.382812 Z M 27.488281 9.160156 L 27.488281 39.492188 C 27.488281 39.523438 27.546875 43.414062 30.355469 48.5 C 32.929688 53.148438 38.398438 59.773438 49.824219 65.058594 C 56.277344 62.066406 64.695312 56.835938 69.328125 48.5 C 72.132812 43.414062 72.191406 39.523438 72.191406 39.492188 L 72.191406 24.53125 C 72.191406 16.046875 65.332031 9.160156 56.886719 9.160156 Z M 27.488281 9.160156 " fill-opacity="1" fill-rule="nonzero"/></g><g fill="#555555" fill-opacity="1"><g transform="translate(93.612579, 38.614026)"><g><path d="M 19.46875 0 L 19.40625 -10.296875 L 14.421875 -1.90625 L 11.984375 -1.90625 L 7.015625 -10.015625 L 7.015625 0 L 1.9375 0 L 1.9375 -19.40625 L 6.46875 -19.40625 L 13.28125 -8.203125 L 19.9375 -19.40625 L 24.46875 -19.40625 L 24.515625 0 Z M 19.46875 0 "/></g></g></g><g fill="#555555" fill-opacity="1"><g transform="translate(118.202823, 38.614026)"><g><path d="M 9.234375 0.25 C 7.628906 0.25 6.175781 -0.0820312 4.875 -0.75 C 3.582031 -1.414062 2.570312 -2.335938 1.84375 -3.515625 C 1.113281 -4.703125 0.75 -6.046875 0.75 -7.546875 C 0.75 -9.023438 1.113281 -10.351562 1.84375 -11.53125 C 2.570312 -12.71875 3.578125 -13.640625 4.859375 -14.296875 C 6.148438 -14.953125 7.609375 -15.28125 9.234375 -15.28125 C 10.859375 -15.28125 12.316406 -14.953125 13.609375 -14.296875 C 14.910156 -13.640625 15.921875 -12.722656 16.640625 -11.546875 C 17.359375 -10.378906 17.71875 -9.046875 17.71875 -7.546875 C 17.71875 -6.046875 17.359375 -4.703125 16.640625 -3.515625 C 15.921875 -2.335938 14.910156 -1.414062 13.609375 -0.75 C 12.316406 -0.0820312 10.859375 0.25 9.234375 0.25 Z M 9.234375 -3.9375 C 10.160156 -3.9375 10.914062 -4.253906 11.5 -4.890625 C 12.09375 -5.535156 12.390625 -6.421875 12.390625 -7.546875 C 12.390625 -8.648438 12.09375 -9.515625 11.5 -10.140625 C 10.914062 -10.773438 10.160156 -11.09375 9.234375 -11.09375 C 8.304688 -11.09375 7.546875 -10.773438 6.953125 -10.140625 C 6.367188 -9.515625 6.078125 -8.648438 6.078125 -7.546875 C 6.078125 -6.421875 6.367188 -5.535156 6.953125 -4.890625 C 7.546875 -4.253906 8.304688 -3.9375 9.234375 -3.9375 Z M 9.234375 -3.9375 "/></g></g></g><g fill="#555555" fill-opacity="1"><g transform="translate(134.808577, 38.614026)"><g><path d="M 11.484375 -15.28125 C 13.347656 -15.28125 14.847656 -14.722656 15.984375 -13.609375 C 17.117188 -12.503906 17.6875 -10.832031 17.6875 -8.59375 L 17.6875 0 L 12.421875 0 L 12.421875 -7.734375 C 12.421875 -9.785156 11.597656 -10.8125 9.953125 -10.8125 C 9.046875 -10.8125 8.320312 -10.515625 7.78125 -9.921875 C 7.238281 -9.335938 6.96875 -8.453125 6.96875 -7.265625 L 6.96875 0 L 1.6875 0 L 1.6875 -15.03125 L 6.71875 -15.03125 L 6.71875 -13.390625 C 7.300781 -14.003906 8 -14.472656 8.8125 -14.796875 C 9.632812 -15.117188 10.523438 -15.28125 11.484375 -15.28125 Z M 11.484375 -15.28125 "/></g></g></g><g fill="#555555" fill-opacity="1"><g transform="translate(152.246059, 38.614026)"><g><path d="M 1.6875 -15.03125 L 6.96875 -15.03125 L 6.96875 0 L 1.6875 0 Z M 4.328125 -16.703125 C 3.359375 -16.703125 2.578125 -16.96875 1.984375 -17.5 C 1.398438 -18.03125 1.109375 -18.695312 1.109375 -19.5 C 1.109375 -20.289062 1.398438 -20.953125 1.984375 -21.484375 C 2.578125 -22.023438 3.359375 -22.296875 4.328125 -22.296875 C 5.285156 -22.296875 6.054688 -22.039062 6.640625 -21.53125 C 7.234375 -21.019531 7.53125 -20.367188 7.53125 -19.578125 C 7.53125 -18.742188 7.234375 -18.054688 6.640625 -17.515625 C 6.054688 -16.972656 5.285156 -16.703125 4.328125 -16.703125 Z M 4.328125 -16.703125 "/></g></g></g><g fill="#555555" fill-opacity="1"><g transform="translate(159.065275, 38.614026)"><g><path d="M 12.0625 -0.609375 C 11.625 -0.328125 11.082031 -0.113281 10.4375 0.03125 C 9.800781 0.175781 9.125 0.25 8.40625 0.25 C 6.445312 0.25 4.9375 -0.226562 3.875 -1.1875 C 2.820312 -2.15625 2.296875 -3.585938 2.296875 -5.484375 L 2.296875 -10.53125 L 0.109375 -10.53125 L 0.109375 -14.484375 L 2.296875 -14.484375 L 2.296875 -18.390625 L 7.578125 -18.390625 L 7.578125 -14.484375 L 11.015625 -14.484375 L 11.015625 -10.53125 L 7.578125 -10.53125 L 7.578125 -5.546875 C 7.578125 -5.015625 7.71875 -4.59375 8 -4.28125 C 8.289062 -3.976562 8.675781 -3.828125 9.15625 -3.828125 C 9.757812 -3.828125 10.296875 -3.984375 10.765625 -4.296875 Z M 12.0625 -0.609375 "/></g></g></g><g fill="#555555" fill-opacity="1"><g transform="translate(169.599489, 38.614026)"><g><path d="M 9.234375 0.25 C 7.628906 0.25 6.175781 -0.0820312 4.875 -0.75 C 3.582031 -1.414062 2.570312 -2.335938 1.84375 -3.515625 C 1.113281 -4.703125 0.75 -6.046875 0.75 -7.546875 C 0.75 -9.023438 1.113281 -10.351562 1.84375 -11.53125 C 2.570312 -12.71875 3.578125 -13.640625 4.859375 -14.296875 C 6.148438 -14.953125 7.609375 -15.28125 9.234375 -15.28125 C 10.859375 -15.28125 12.316406 -14.953125 13.609375 -14.296875 C 14.910156 -13.640625 15.921875 -12.722656 16.640625 -11.546875 C 17.359375 -10.378906 17.71875 -9.046875 17.71875 -7.546875 C 17.71875 -6.046875 17.359375 -4.703125 16.640625 -3.515625 C 15.921875 -2.335938 14.910156 -1.414062 13.609375 -0.75 C 12.316406 -0.0820312 10.859375 0.25 9.234375 0.25 Z M 9.234375 -3.9375 C 10.160156 -3.9375 10.914062 -4.253906 11.5 -4.890625 C 12.09375 -5.535156 12.390625 -6.421875 12.390625 -7.546875 C 12.390625 -8.648438 12.09375 -9.515625 11.5 -10.140625 C 10.914062 -10.773438 10.160156 -11.09375 9.234375 -11.09375 C 8.304688 -11.09375 7.546875 -10.773438 6.953125 -10.140625 C 6.367188 -9.515625 6.078125 -8.648438 6.078125 -7.546875 C 6.078125 -6.421875 6.367188 -5.535156 6.953125 -4.890625 C 7.546875 -4.253906 8.304688 -3.9375 9.234375 -3.9375 Z M 9.234375 -3.9375 "/></g></g></g><g fill="#555555" fill-opacity="1"><g transform="translate(186.205242, 38.614026)"><g><path d="M 6.71875 -13.234375 C 7.25 -13.910156 7.941406 -14.421875 8.796875 -14.765625 C 9.660156 -15.109375 10.648438 -15.28125 11.765625 -15.28125 L 11.765625 -10.53125 C 11.273438 -10.59375 10.875 -10.625 10.5625 -10.625 C 9.4375 -10.625 8.554688 -10.316406 7.921875 -9.703125 C 7.285156 -9.097656 6.96875 -8.164062 6.96875 -6.90625 L 6.96875 0 L 1.6875 0 L 1.6875 -15.03125 L 6.71875 -15.03125 Z M 6.71875 -13.234375 "/></g></g></g><g fill="#555555" fill-opacity="1"><g transform="translate(196.628563, 38.614026)"><g><path d="M 1.6875 -15.03125 L 6.96875 -15.03125 L 6.96875 0 L 1.6875 0 Z M 4.328125 -16.703125 C 3.359375 -16.703125 2.578125 -16.96875 1.984375 -17.5 C 1.398438 -18.03125 1.109375 -18.695312 1.109375 -19.5 C 1.109375 -20.289062 1.398438 -20.953125 1.984375 -21.484375 C 2.578125 -22.023438 3.359375 -22.296875 4.328125 -22.296875 C 5.285156 -22.296875 6.054688 -22.039062 6.640625 -21.53125 C 7.234375 -21.019531 7.53125 -20.367188 7.53125 -19.578125 C 7.53125 -18.742188 7.234375 -18.054688 6.640625 -17.515625 C 6.054688 -16.972656 5.285156 -16.703125 4.328125 -16.703125 Z M 4.328125 -16.703125 "/></g></g></g><g fill="#555555" fill-opacity="1"><g transform="translate(203.447779, 38.614026)"><g><path d="M 11.484375 -15.28125 C 13.347656 -15.28125 14.847656 -14.722656 15.984375 -13.609375 C 17.117188 -12.503906 17.6875 -10.832031 17.6875 -8.59375 L 17.6875 0 L 12.421875 0 L 12.421875 -7.734375 C 12.421875 -9.785156 11.597656 -10.8125 9.953125 -10.8125 C 9.046875 -10.8125 8.320312 -10.515625 7.78125 -9.921875 C 7.238281 -9.335938 6.96875 -8.453125 6.96875 -7.265625 L 6.96875 0 L 1.6875 0 L 1.6875 -15.03125 L 6.71875 -15.03125 L 6.71875 -13.390625 C 7.300781 -14.003906 8 -14.472656 8.8125 -14.796875 C 9.632812 -15.117188 10.523438 -15.28125 11.484375 -15.28125 Z M 11.484375 -15.28125 "/></g></g></g><g fill="#555555" fill-opacity="1"><g transform="translate(220.885264, 38.614026)"><g><path d="M 17.859375 -15.03125 L 17.859375 -2.75 C 17.859375 0.0390625 17.097656 2.132812 15.578125 3.53125 C 14.066406 4.925781 11.890625 5.625 9.046875 5.625 C 7.566406 5.625 6.175781 5.457031 4.875 5.125 C 3.582031 4.789062 2.484375 4.300781 1.578125 3.65625 L 3.5 -0.03125 C 4.101562 0.46875 4.867188 0.859375 5.796875 1.140625 C 6.734375 1.429688 7.65625 1.578125 8.5625 1.578125 C 9.957031 1.578125 10.976562 1.269531 11.625 0.65625 C 12.269531 0.0507812 12.59375 -0.847656 12.59375 -2.046875 L 12.59375 -2.546875 C 11.570312 -1.367188 10.082031 -0.78125 8.125 -0.78125 C 6.789062 -0.78125 5.5625 -1.078125 4.4375 -1.671875 C 3.3125 -2.273438 2.414062 -3.125 1.75 -4.21875 C 1.082031 -5.320312 0.75 -6.597656 0.75 -8.046875 C 0.75 -9.460938 1.082031 -10.722656 1.75 -11.828125 C 2.414062 -12.929688 3.3125 -13.78125 4.4375 -14.375 C 5.5625 -14.976562 6.789062 -15.28125 8.125 -15.28125 C 10.269531 -15.28125 11.84375 -14.585938 12.84375 -13.203125 L 12.84375 -15.03125 Z M 9.375 -4.96875 C 10.3125 -4.96875 11.085938 -5.253906 11.703125 -5.828125 C 12.328125 -6.398438 12.640625 -7.140625 12.640625 -8.046875 C 12.640625 -8.953125 12.332031 -9.6875 11.71875 -10.25 C 11.113281 -10.8125 10.332031 -11.09375 9.375 -11.09375 C 8.414062 -11.09375 7.625 -10.8125 7 -10.25 C 6.382812 -9.6875 6.078125 -8.953125 6.078125 -8.046875 C 6.078125 -7.140625 6.390625 -6.398438 7.015625 -5.828125 C 7.640625 -5.253906 8.425781 -4.96875 9.375 -4.96875 Z M 9.375 -4.96875 "/></g></g></g><g fill="#555555" fill-opacity="1"><g transform="translate(238.572258, 38.614026)"><g><path d="M 8.765625 0.390625 C 7.191406 0.390625 5.664062 0.195312 4.1875 -0.1875 C 2.707031 -0.582031 1.503906 -1.101562 0.578125 -1.75 L 2.390625 -5.796875 C 3.253906 -5.222656 4.257812 -4.757812 5.40625 -4.40625 C 6.550781 -4.050781 7.679688 -3.875 8.796875 -3.875 C 10.898438 -3.875 11.953125 -4.40625 11.953125 -5.46875 C 11.953125 -6.019531 11.648438 -6.425781 11.046875 -6.6875 C 10.453125 -6.957031 9.488281 -7.242188 8.15625 -7.546875 C 6.695312 -7.859375 5.472656 -8.191406 4.484375 -8.546875 C 3.503906 -8.910156 2.664062 -9.488281 1.96875 -10.28125 C 1.269531 -11.082031 0.921875 -12.15625 0.921875 -13.5 C 0.921875 -14.6875 1.242188 -15.753906 1.890625 -16.703125 C 2.535156 -17.660156 3.5 -18.414062 4.78125 -18.96875 C 6.070312 -19.519531 7.648438 -19.796875 9.515625 -19.796875 C 10.785156 -19.796875 12.039062 -19.648438 13.28125 -19.359375 C 14.519531 -19.078125 15.613281 -18.660156 16.5625 -18.109375 L 14.859375 -14.03125 C 13.015625 -15.03125 11.222656 -15.53125 9.484375 -15.53125 C 8.390625 -15.53125 7.59375 -15.367188 7.09375 -15.046875 C 6.59375 -14.722656 6.34375 -14.300781 6.34375 -13.78125 C 6.34375 -13.257812 6.640625 -12.867188 7.234375 -12.609375 C 7.828125 -12.359375 8.78125 -12.09375 10.09375 -11.8125 C 11.570312 -11.5 12.796875 -11.160156 13.765625 -10.796875 C 14.734375 -10.441406 15.570312 -9.867188 16.28125 -9.078125 C 17 -8.296875 17.359375 -7.226562 17.359375 -5.875 C 17.359375 -4.707031 17.035156 -3.648438 16.390625 -2.703125 C 15.742188 -1.765625 14.769531 -1.015625 13.46875 -0.453125 C 12.175781 0.109375 10.609375 0.390625 8.765625 0.390625 Z M 8.765625 0.390625 "/></g></g></g><g fill="#555555" fill-opacity="1"><g transform="translate(254.651262, 38.614026)"><g><path d="M 17.53125 -15.03125 L 11.03125 0.609375 C 10.28125 2.460938 9.359375 3.757812 8.265625 4.5 C 7.171875 5.25 5.835938 5.625 4.265625 5.625 C 3.472656 5.625 2.675781 5.5 1.875 5.25 C 1.070312 5 0.421875 4.671875 -0.078125 4.265625 L 1.75 0.578125 C 2.039062 0.859375 2.394531 1.078125 2.8125 1.234375 C 3.226562 1.390625 3.648438 1.46875 4.078125 1.46875 C 4.578125 1.46875 4.988281 1.363281 5.3125 1.15625 C 5.632812 0.957031 5.90625 0.632812 6.125 0.1875 L -0.3125 -15.03125 L 5.109375 -15.03125 L 8.796875 -5.859375 L 12.515625 -15.03125 Z M 17.53125 -15.03125 "/></g></g></g><g fill="#555555" fill-opacity="1"><g transform="translate(269.981717, 38.614026)"><g><path d="M 7.15625 0.25 C 5.894531 0.25 4.65625 0.109375 3.4375 -0.171875 C 2.21875 -0.460938 1.238281 -0.835938 0.5 -1.296875 L 2.078125 -4.90625 C 2.765625 -4.476562 3.578125 -4.140625 4.515625 -3.890625 C 5.460938 -3.640625 6.398438 -3.515625 7.328125 -3.515625 C 8.171875 -3.515625 8.769531 -3.601562 9.125 -3.78125 C 9.488281 -3.957031 9.671875 -4.210938 9.671875 -4.546875 C 9.671875 -4.878906 9.453125 -5.113281 9.015625 -5.25 C 8.585938 -5.394531 7.90625 -5.53125 6.96875 -5.65625 C 5.757812 -5.800781 4.734375 -5.992188 3.890625 -6.234375 C 3.054688 -6.472656 2.332031 -6.914062 1.71875 -7.5625 C 1.101562 -8.21875 0.796875 -9.128906 0.796875 -10.296875 C 0.796875 -11.253906 1.082031 -12.109375 1.65625 -12.859375 C 2.238281 -13.609375 3.078125 -14.195312 4.171875 -14.625 C 5.273438 -15.0625 6.59375 -15.28125 8.125 -15.28125 C 9.21875 -15.28125 10.300781 -15.164062 11.375 -14.9375 C 12.445312 -14.71875 13.34375 -14.40625 14.0625 -14 L 12.484375 -10.421875 C 11.148438 -11.160156 9.707031 -11.53125 8.15625 -11.53125 C 7.320312 -11.53125 6.707031 -11.429688 6.3125 -11.234375 C 5.925781 -11.046875 5.734375 -10.796875 5.734375 -10.484375 C 5.734375 -10.128906 5.945312 -9.882812 6.375 -9.75 C 6.800781 -9.613281 7.503906 -9.46875 8.484375 -9.3125 C 9.722656 -9.132812 10.75 -8.921875 11.5625 -8.671875 C 12.375 -8.429688 13.082031 -7.992188 13.6875 -7.359375 C 14.289062 -6.722656 14.59375 -5.832031 14.59375 -4.6875 C 14.59375 -3.738281 14.304688 -2.890625 13.734375 -2.140625 C 13.160156 -1.398438 12.3125 -0.816406 11.1875 -0.390625 C 10.070312 0.0351562 8.726562 0.25 7.15625 0.25 Z M 7.15625 0.25 "/></g></g></g><g fill="#555555" fill-opacity="1"><g transform="translate(283.288326, 38.614026)"><g><path d="M 12.0625 -0.609375 C 11.625 -0.328125 11.082031 -0.113281 10.4375 0.03125 C 9.800781 0.175781 9.125 0.25 8.40625 0.25 C 6.445312 0.25 4.9375 -0.226562 3.875 -1.1875 C 2.820312 -2.15625 2.296875 -3.585938 2.296875 -5.484375 L 2.296875 -10.53125 L 0.109375 -10.53125 L 0.109375 -14.484375 L 2.296875 -14.484375 L 2.296875 -18.390625 L 7.578125 -18.390625 L 7.578125 -14.484375 L 11.015625 -14.484375 L 11.015625 -10.53125 L 7.578125 -10.53125 L 7.578125 -5.546875 C 7.578125 -5.015625 7.71875 -4.59375 8 -4.28125 C 8.289062 -3.976562 8.675781 -3.828125 9.15625 -3.828125 C 9.757812 -3.828125 10.296875 -3.984375 10.765625 -4.296875 Z M 12.0625 -0.609375 "/></g></g></g><g fill="#555555" fill-opacity="1"><g transform="translate(293.82254, 38.614026)"><g><path d="M 17.0625 -7.484375 C 17.0625 -7.453125 17.03125 -7.019531 16.96875 -6.1875 L 6.046875 -6.1875 C 6.265625 -5.40625 6.691406 -4.804688 7.328125 -4.390625 C 7.972656 -3.972656 8.773438 -3.765625 9.734375 -3.765625 C 10.453125 -3.765625 11.070312 -3.863281 11.59375 -4.0625 C 12.125 -4.269531 12.660156 -4.609375 13.203125 -5.078125 L 15.96875 -2.1875 C 14.507812 -0.5625 12.375 0.25 9.5625 0.25 C 7.8125 0.25 6.269531 -0.0820312 4.9375 -0.75 C 3.601562 -1.414062 2.570312 -2.335938 1.84375 -3.515625 C 1.113281 -4.703125 0.75 -6.046875 0.75 -7.546875 C 0.75 -9.023438 1.101562 -10.347656 1.8125 -11.515625 C 2.53125 -12.691406 3.515625 -13.613281 4.765625 -14.28125 C 6.023438 -14.945312 7.441406 -15.28125 9.015625 -15.28125 C 10.515625 -15.28125 11.875 -14.96875 13.09375 -14.34375 C 14.3125 -13.726562 15.273438 -12.832031 15.984375 -11.65625 C 16.703125 -10.488281 17.0625 -9.097656 17.0625 -7.484375 Z M 9.046875 -11.53125 C 8.234375 -11.53125 7.550781 -11.300781 7 -10.84375 C 6.457031 -10.382812 6.113281 -9.753906 5.96875 -8.953125 L 12.125 -8.953125 C 11.96875 -9.753906 11.617188 -10.382812 11.078125 -10.84375 C 10.535156 -11.300781 9.859375 -11.53125 9.046875 -11.53125 Z M 9.046875 -11.53125 "/></g></g></g><g fill="#555555" fill-opacity="1"><g transform="translate(309.76292, 38.614026)"><g><path d="M 21.265625 -15.28125 C 23.117188 -15.28125 24.59375 -14.722656 25.6875 -13.609375 C 26.789062 -12.503906 27.34375 -10.832031 27.34375 -8.59375 L 27.34375 0 L 22.078125 0 L 22.078125 -7.734375 C 22.078125 -8.785156 21.878906 -9.5625 21.484375 -10.0625 C 21.085938 -10.5625 20.523438 -10.8125 19.796875 -10.8125 C 19.003906 -10.8125 18.367188 -10.535156 17.890625 -9.984375 C 17.410156 -9.429688 17.171875 -8.585938 17.171875 -7.453125 L 17.171875 0 L 11.890625 0 L 11.890625 -7.734375 C 11.890625 -9.785156 11.132812 -10.8125 9.625 -10.8125 C 8.8125 -10.8125 8.164062 -10.535156 7.6875 -9.984375 C 7.207031 -9.429688 6.96875 -8.585938 6.96875 -7.453125 L 6.96875 0 L 1.6875 0 L 1.6875 -15.03125 L 6.71875 -15.03125 L 6.71875 -13.453125 C 7.269531 -14.054688 7.925781 -14.507812 8.6875 -14.8125 C 9.457031 -15.125 10.296875 -15.28125 11.203125 -15.28125 C 12.253906 -15.28125 13.195312 -15.082031 14.03125 -14.6875 C 14.863281 -14.300781 15.539062 -13.710938 16.0625 -12.921875 C 16.65625 -13.679688 17.398438 -14.265625 18.296875 -14.671875 C 19.203125 -15.078125 20.191406 -15.28125 21.265625 -15.28125 Z M 21.265625 -15.28125 "/></g></g></g><g fill="#555555" fill-opacity="1"><g transform="translate(89.876939, 58.576255)"><g><path d="M 4.046875 0.078125 C 3.367188 0.078125 2.710938 -0.03125 2.078125 -0.25 C 1.453125 -0.46875 0.96875 -0.757812 0.625 -1.125 L 1 -1.875 C 1.332031 -1.539062 1.773438 -1.269531 2.328125 -1.0625 C 2.890625 -0.851562 3.460938 -0.75 4.046875 -0.75 C 4.878906 -0.75 5.5 -0.898438 5.90625 -1.203125 C 6.320312 -1.503906 6.53125 -1.898438 6.53125 -2.390625 C 6.53125 -2.753906 6.414062 -3.046875 6.1875 -3.265625 C 5.96875 -3.492188 5.695312 -3.664062 5.375 -3.78125 C 5.050781 -3.90625 4.597656 -4.035156 4.015625 -4.171875 C 3.316406 -4.347656 2.757812 -4.515625 2.34375 -4.671875 C 1.9375 -4.835938 1.582031 -5.085938 1.28125 -5.421875 C 0.988281 -5.753906 0.84375 -6.207031 0.84375 -6.78125 C 0.84375 -7.25 0.960938 -7.675781 1.203125 -8.0625 C 1.453125 -8.445312 1.832031 -8.753906 2.34375 -8.984375 C 2.851562 -9.210938 3.488281 -9.328125 4.25 -9.328125 C 4.78125 -9.328125 5.296875 -9.253906 5.796875 -9.109375 C 6.304688 -8.960938 6.742188 -8.757812 7.109375 -8.5 L 6.78125 -7.71875 C 6.394531 -7.976562 5.984375 -8.171875 5.546875 -8.296875 C 5.109375 -8.421875 4.675781 -8.484375 4.25 -8.484375 C 3.4375 -8.484375 2.828125 -8.328125 2.421875 -8.015625 C 2.015625 -7.703125 1.8125 -7.300781 1.8125 -6.8125 C 1.8125 -6.445312 1.921875 -6.148438 2.140625 -5.921875 C 2.367188 -5.691406 2.648438 -5.519531 2.984375 -5.40625 C 3.328125 -5.289062 3.785156 -5.160156 4.359375 -5.015625 C 5.035156 -4.847656 5.582031 -4.679688 6 -4.515625 C 6.414062 -4.359375 6.769531 -4.113281 7.0625 -3.78125 C 7.351562 -3.445312 7.5 -3 7.5 -2.4375 C 7.5 -1.976562 7.375 -1.554688 7.125 -1.171875 C 6.875 -0.785156 6.488281 -0.476562 5.96875 -0.25 C 5.445312 -0.03125 4.804688 0.078125 4.046875 0.078125 Z M 4.046875 0.078125 "/></g></g></g><g fill="#555555" fill-opacity="1"><g transform="translate(97.949204, 58.576255)"><g><path d="M 1.5 -9.25 L 2.484375 -9.25 L 2.484375 0 L 1.5 0 Z M 1.5 -9.25 "/></g></g></g><g fill="#555555" fill-opacity="1"><g transform="translate(101.892982, 58.576255)"><g><path d="M 4.046875 0.078125 C 3.367188 0.078125 2.710938 -0.03125 2.078125 -0.25 C 1.453125 -0.46875 0.96875 -0.757812 0.625 -1.125 L 1 -1.875 C 1.332031 -1.539062 1.773438 -1.269531 2.328125 -1.0625 C 2.890625 -0.851562 3.460938 -0.75 4.046875 -0.75 C 4.878906 -0.75 5.5 -0.898438 5.90625 -1.203125 C 6.320312 -1.503906 6.53125 -1.898438 6.53125 -2.390625 C 6.53125 -2.753906 6.414062 -3.046875 6.1875 -3.265625 C 5.96875 -3.492188 5.695312 -3.664062 5.375 -3.78125 C 5.050781 -3.90625 4.597656 -4.035156 4.015625 -4.171875 C 3.316406 -4.347656 2.757812 -4.515625 2.34375 -4.671875 C 1.9375 -4.835938 1.582031 -5.085938 1.28125 -5.421875 C 0.988281 -5.753906 0.84375 -6.207031 0.84375 -6.78125 C 0.84375 -7.25 0.960938 -7.675781 1.203125 -8.0625 C 1.453125 -8.445312 1.832031 -8.753906 2.34375 -8.984375 C 2.851562 -9.210938 3.488281 -9.328125 4.25 -9.328125 C 4.78125 -9.328125 5.296875 -9.253906 5.796875 -9.109375 C 6.304688 -8.960938 6.742188 -8.757812 7.109375 -8.5 L 6.78125 -7.71875 C 6.394531 -7.976562 5.984375 -8.171875 5.546875 -8.296875 C 5.109375 -8.421875 4.675781 -8.484375 4.25 -8.484375 C 3.4375 -8.484375 2.828125 -8.328125 2.421875 -8.015625 C 2.015625 -7.703125 1.8125 -7.300781 1.8125 -6.8125 C 1.8125 -6.445312 1.921875 -6.148438 2.140625 -5.921875 C 2.367188 -5.691406 2.648438 -5.519531 2.984375 -5.40625 C 3.328125 -5.289062 3.785156 -5.160156 4.359375 -5.015625 C 5.035156 -4.847656 5.582031 -4.679688 6 -4.515625 C 6.414062 -4.359375 6.769531 -4.113281 7.0625 -3.78125 C 7.351562 -3.445312 7.5 -3 7.5 -2.4375 C 7.5 -1.976562 7.375 -1.554688 7.125 -1.171875 C 6.875 -0.785156 6.488281 -0.476562 5.96875 -0.25 C 5.445312 -0.03125 4.804688 0.078125 4.046875 0.078125 Z M 4.046875 0.078125 "/></g></g></g><g fill="#555555" fill-opacity="1"><g transform="translate(109.965248, 58.576255)"><g><path d="M 3.296875 -8.390625 L 0.046875 -8.390625 L 0.046875 -9.25 L 7.53125 -9.25 L 7.53125 -8.390625 L 4.28125 -8.390625 L 4.28125 0 L 3.296875 0 Z M 3.296875 -8.390625 "/></g></g></g><g fill="#555555" fill-opacity="1"><g transform="translate(117.496727, 58.576255)"><g><path d="M 8.046875 -0.84375 L 8.046875 0 L 1.5 0 L 1.5 -9.25 L 7.84375 -9.25 L 7.84375 -8.390625 L 2.484375 -8.390625 L 2.484375 -5.109375 L 7.265625 -5.109375 L 7.265625 -4.28125 L 2.484375 -4.28125 L 2.484375 -0.84375 Z M 8.046875 -0.84375 "/></g></g></g><g fill="#555555" fill-opacity="1"><g transform="translate(126.281251, 58.576255)"><g><path d="M 11.109375 -9.25 L 11.109375 0 L 10.171875 0 L 10.171875 -7.390625 L 6.53125 -1.171875 L 6.078125 -1.171875 L 2.4375 -7.359375 L 2.4375 0 L 1.5 0 L 1.5 -9.25 L 2.3125 -9.25 L 6.328125 -2.390625 L 10.296875 -9.25 Z M 11.109375 -9.25 "/></g></g></g><g fill="#555555" fill-opacity="1"><g transform="translate(138.838145, 58.576255)"><g><path d="M 7.296875 -2.46875 L 2.15625 -2.46875 L 1.046875 0 L 0.03125 0 L 4.25 -9.25 L 5.21875 -9.25 L 9.4375 0 L 8.40625 0 Z M 6.9375 -3.265625 L 4.734375 -8.21875 L 2.515625 -3.265625 Z M 6.9375 -3.265625 "/></g></g></g><g fill="#555555" fill-opacity="1"><g transform="translate(148.255802, 58.576255)"><g/></g></g><g fill="#555555" fill-opacity="1"><g transform="translate(151.671979, 58.576255)"><g><path d="M 1.5 -9.25 L 2.484375 -9.25 L 2.484375 0 L 1.5 0 Z M 1.5 -9.25 "/></g></g></g><g fill="#555555" fill-opacity="1"><g transform="translate(155.615761, 58.576255)"><g><path d="M 9.234375 -9.25 L 9.234375 0 L 8.421875 0 L 2.484375 -7.5 L 2.484375 0 L 1.5 0 L 1.5 -9.25 L 2.3125 -9.25 L 8.265625 -1.75 L 8.265625 -9.25 Z M 9.234375 -9.25 "/></g></g></g><g fill="#555555" fill-opacity="1"><g transform="translate(166.299661, 58.576255)"><g><path d="M 3.296875 -8.390625 L 0.046875 -8.390625 L 0.046875 -9.25 L 7.53125 -9.25 L 7.53125 -8.390625 L 4.28125 -8.390625 L 4.28125 0 L 3.296875 0 Z M 3.296875 -8.390625 "/></g></g></g><g fill="#555555" fill-opacity="1"><g transform="translate(173.831143, 58.576255)"><g><path d="M 8.046875 -0.84375 L 8.046875 0 L 1.5 0 L 1.5 -9.25 L 7.84375 -9.25 L 7.84375 -8.390625 L 2.484375 -8.390625 L 2.484375 -5.109375 L 7.265625 -5.109375 L 7.265625 -4.28125 L 2.484375 -4.28125 L 2.484375 -0.84375 Z M 8.046875 -0.84375 "/></g></g></g><g fill="#555555" fill-opacity="1"><g transform="translate(182.615671, 58.576255)"><g><path d="M 1.5 -9.25 L 2.484375 -9.25 L 2.484375 -0.84375 L 7.65625 -0.84375 L 7.65625 0 L 1.5 0 Z M 1.5 -9.25 "/></g></g></g><g fill="#555555" fill-opacity="1"><g transform="translate(190.345003, 58.576255)"><g><path d="M 1.5 -9.25 L 2.484375 -9.25 L 2.484375 0 L 1.5 0 Z M 1.5 -9.25 "/></g></g></g><g fill="#555555" fill-opacity="1"><g transform="translate(194.288784, 58.576255)"><g><path d="M 8.015625 -4.625 L 8.953125 -4.625 L 8.953125 -1.09375 C 8.523438 -0.71875 8.015625 -0.425781 7.421875 -0.21875 C 6.828125 -0.0195312 6.207031 0.078125 5.5625 0.078125 C 4.632812 0.078125 3.800781 -0.125 3.0625 -0.53125 C 2.320312 -0.9375 1.738281 -1.492188 1.3125 -2.203125 C 0.894531 -2.921875 0.6875 -3.726562 0.6875 -4.625 C 0.6875 -5.507812 0.894531 -6.3125 1.3125 -7.03125 C 1.738281 -7.75 2.320312 -8.3125 3.0625 -8.71875 C 3.800781 -9.125 4.640625 -9.328125 5.578125 -9.328125 C 6.273438 -9.328125 6.914062 -9.210938 7.5 -8.984375 C 8.09375 -8.753906 8.59375 -8.421875 9 -7.984375 L 8.390625 -7.375 C 7.660156 -8.09375 6.734375 -8.453125 5.609375 -8.453125 C 4.859375 -8.453125 4.179688 -8.285156 3.578125 -7.953125 C 2.984375 -7.617188 2.515625 -7.160156 2.171875 -6.578125 C 1.828125 -5.992188 1.65625 -5.34375 1.65625 -4.625 C 1.65625 -3.894531 1.828125 -3.238281 2.171875 -2.65625 C 2.515625 -2.082031 2.984375 -1.628906 3.578125 -1.296875 C 4.171875 -0.960938 4.84375 -0.796875 5.59375 -0.796875 C 6.550781 -0.796875 7.359375 -1.03125 8.015625 -1.5 Z M 8.015625 -4.625 "/></g></g></g><g fill="#555555" fill-opacity="1"><g transform="translate(204.44508, 58.576255)"><g><path d="M 8.046875 -0.84375 L 8.046875 0 L 1.5 0 L 1.5 -9.25 L 7.84375 -9.25 L 7.84375 -8.390625 L 2.484375 -8.390625 L 2.484375 -5.109375 L 7.265625 -5.109375 L 7.265625 -4.28125 L 2.484375 -4.28125 L 2.484375 -0.84375 Z M 8.046875 -0.84375 "/></g></g></g><g fill="#555555" fill-opacity="1"><g transform="translate(213.2296, 58.576255)"><g><path d="M 9.234375 -9.25 L 9.234375 0 L 8.421875 0 L 2.484375 -7.5 L 2.484375 0 L 1.5 0 L 1.5 -9.25 L 2.3125 -9.25 L 8.265625 -1.75 L 8.265625 -9.25 Z M 9.234375 -9.25 "/></g></g></g><g fill="#555555" fill-opacity="1"><g transform="translate(223.913493, 58.576255)"><g><path d="M 3.296875 -8.390625 L 0.046875 -8.390625 L 0.046875 -9.25 L 7.53125 -9.25 L 7.53125 -8.390625 L 4.28125 -8.390625 L 4.28125 0 L 3.296875 0 Z M 3.296875 -8.390625 "/></g></g></g><g fill="#555555" fill-opacity="1"><g transform="translate(231.444969, 58.576255)"><g><path d="M 8.046875 -0.84375 L 8.046875 0 L 1.5 0 L 1.5 -9.25 L 7.84375 -9.25 L 7.84375 -8.390625 L 2.484375 -8.390625 L 2.484375 -5.109375 L 7.265625 -5.109375 L 7.265625 -4.28125 L 2.484375 -4.28125 L 2.484375 -0.84375 Z M 8.046875 -0.84375 "/></g></g></g><g fill="#555555" fill-opacity="1"><g transform="translate(240.229489, 58.576255)"><g/></g></g><g fill="#555555" fill-opacity="1"><g transform="translate(243.645658, 58.576255)"><g><path d="M 1.5 -9.25 L 5.265625 -9.25 C 6.242188 -9.25 7.109375 -9.050781 7.859375 -8.65625 C 8.609375 -8.257812 9.1875 -7.710938 9.59375 -7.015625 C 10.007812 -6.316406 10.21875 -5.519531 10.21875 -4.625 C 10.21875 -3.726562 10.007812 -2.925781 9.59375 -2.21875 C 9.1875 -1.519531 8.609375 -0.972656 7.859375 -0.578125 C 7.109375 -0.191406 6.242188 0 5.265625 0 L 1.5 0 Z M 5.21875 -0.84375 C 6.03125 -0.84375 6.738281 -1.003906 7.34375 -1.328125 C 7.945312 -1.648438 8.414062 -2.09375 8.75 -2.65625 C 9.082031 -3.226562 9.25 -3.882812 9.25 -4.625 C 9.25 -5.363281 9.082031 -6.015625 8.75 -6.578125 C 8.414062 -7.148438 7.945312 -7.59375 7.34375 -7.90625 C 6.738281 -8.226562 6.03125 -8.390625 5.21875 -8.390625 L 2.484375 -8.390625 L 2.484375 -0.84375 Z M 5.21875 -0.84375 "/></g></g></g><g fill="#555555" fill-opacity="1"><g transform="translate(254.501026, 58.576255)"><g><path d="M 8.046875 -0.84375 L 8.046875 0 L 1.5 0 L 1.5 -9.25 L 7.84375 -9.25 L 7.84375 -8.390625 L 2.484375 -8.390625 L 2.484375 -5.109375 L 7.265625 -5.109375 L 7.265625 -4.28125 L 2.484375 -4.28125 L 2.484375 -0.84375 Z M 8.046875 -0.84375 "/></g></g></g><g fill="#555555" fill-opacity="1"><g transform="translate(263.285546, 58.576255)"><g/></g></g><g fill="#555555" fill-opacity="1"><g transform="translate(266.701716, 58.576255)"><g><path d="M 5.515625 0.078125 C 4.597656 0.078125 3.769531 -0.125 3.03125 -0.53125 C 2.300781 -0.9375 1.726562 -1.492188 1.3125 -2.203125 C 0.894531 -2.921875 0.6875 -3.726562 0.6875 -4.625 C 0.6875 -5.507812 0.894531 -6.3125 1.3125 -7.03125 C 1.726562 -7.75 2.304688 -8.3125 3.046875 -8.71875 C 3.785156 -9.125 4.613281 -9.328125 5.53125 -9.328125 C 6.21875 -9.328125 6.851562 -9.210938 7.4375 -8.984375 C 8.019531 -8.753906 8.507812 -8.414062 8.90625 -7.96875 L 8.296875 -7.359375 C 7.566406 -8.085938 6.65625 -8.453125 5.5625 -8.453125 C 4.832031 -8.453125 4.164062 -8.285156 3.5625 -7.953125 C 2.96875 -7.617188 2.5 -7.160156 2.15625 -6.578125 C 1.820312 -5.992188 1.65625 -5.34375 1.65625 -4.625 C 1.65625 -3.894531 1.820312 -3.238281 2.15625 -2.65625 C 2.5 -2.082031 2.96875 -1.628906 3.5625 -1.296875 C 4.164062 -0.960938 4.832031 -0.796875 5.5625 -0.796875 C 6.664062 -0.796875 7.578125 -1.164062 8.296875 -1.90625 L 8.90625 -1.28125 C 8.507812 -0.84375 8.015625 -0.503906 7.421875 -0.265625 C 6.835938 -0.0351562 6.203125 0.078125 5.515625 0.078125 Z M 5.515625 0.078125 "/></g></g></g><g fill="#555555" fill-opacity="1"><g transform="translate(276.145745, 58.576255)"><g><path d="M 5.546875 0.078125 C 4.628906 0.078125 3.796875 -0.125 3.046875 -0.53125 C 2.304688 -0.945312 1.726562 -1.507812 1.3125 -2.21875 C 0.894531 -2.925781 0.6875 -3.726562 0.6875 -4.625 C 0.6875 -5.507812 0.894531 -6.304688 1.3125 -7.015625 C 1.726562 -7.734375 2.304688 -8.296875 3.046875 -8.703125 C 3.796875 -9.117188 4.628906 -9.328125 5.546875 -9.328125 C 6.460938 -9.328125 7.285156 -9.125 8.015625 -8.71875 C 8.753906 -8.3125 9.332031 -7.75 9.75 -7.03125 C 10.175781 -6.3125 10.390625 -5.507812 10.390625 -4.625 C 10.390625 -3.726562 10.175781 -2.921875 9.75 -2.203125 C 9.332031 -1.492188 8.753906 -0.9375 8.015625 -0.53125 C 7.285156 -0.125 6.460938 0.078125 5.546875 0.078125 Z M 5.546875 -0.796875 C 6.273438 -0.796875 6.929688 -0.957031 7.515625 -1.28125 C 8.109375 -1.613281 8.570312 -2.070312 8.90625 -2.65625 C 9.238281 -3.238281 9.40625 -3.894531 9.40625 -4.625 C 9.40625 -5.34375 9.238281 -5.992188 8.90625 -6.578125 C 8.570312 -7.160156 8.109375 -7.617188 7.515625 -7.953125 C 6.929688 -8.285156 6.273438 -8.453125 5.546875 -8.453125 C 4.816406 -8.453125 4.15625 -8.285156 3.5625 -7.953125 C 2.96875 -7.617188 2.5 -7.160156 2.15625 -6.578125 C 1.820312 -5.992188 1.65625 -5.34375 1.65625 -4.625 C 1.65625 -3.894531 1.820312 -3.238281 2.15625 -2.65625 C 2.5 -2.070312 2.96875 -1.613281 3.5625 -1.28125 C 4.15625 -0.957031 4.816406 -0.796875 5.546875 -0.796875 Z M 5.546875 -0.796875 "/></g></g></g><g fill="#555555" fill-opacity="1"><g transform="translate(287.172587, 58.576255)"><g><path d="M 9.234375 -9.25 L 9.234375 0 L 8.421875 0 L 2.484375 -7.5 L 2.484375 0 L 1.5 0 L 1.5 -9.25 L 2.3125 -9.25 L 8.265625 -1.75 L 8.265625 -9.25 Z M 9.234375 -9.25 "/></g></g></g><g fill="#555555" fill-opacity="1"><g transform="translate(297.85648, 58.576255)"><g><path d="M 3.296875 -8.390625 L 0.046875 -8.390625 L 0.046875 -9.25 L 7.53125 -9.25 L 7.53125 -8.390625 L 4.28125 -8.390625 L 4.28125 0 L 3.296875 0 Z M 3.296875 -8.390625 "/></g></g></g><g fill="#555555" fill-opacity="1"><g transform="translate(305.387955, 58.576255)"><g><path d="M 7.8125 0 L 5.703125 -2.96875 C 5.460938 -2.945312 5.21875 -2.9375 4.96875 -2.9375 L 2.484375 -2.9375 L 2.484375 0 L 1.5 0 L 1.5 -9.25 L 4.96875 -9.25 C 6.144531 -9.25 7.066406 -8.960938 7.734375 -8.390625 C 8.398438 -7.828125 8.734375 -7.054688 8.734375 -6.078125 C 8.734375 -5.347656 8.550781 -4.734375 8.1875 -4.234375 C 7.820312 -3.742188 7.300781 -3.390625 6.625 -3.171875 L 8.890625 0 Z M 4.9375 -3.765625 C 5.851562 -3.765625 6.550781 -3.96875 7.03125 -4.375 C 7.519531 -4.78125 7.765625 -5.347656 7.765625 -6.078125 C 7.765625 -6.828125 7.519531 -7.398438 7.03125 -7.796875 C 6.550781 -8.191406 5.851562 -8.390625 4.9375 -8.390625 L 2.484375 -8.390625 L 2.484375 -3.765625 Z M 4.9375 -3.765625 "/></g></g></g><g fill="#555555" fill-opacity="1"><g transform="translate(314.884749, 58.576255)"><g><path d="M 5.546875 0.078125 C 4.628906 0.078125 3.796875 -0.125 3.046875 -0.53125 C 2.304688 -0.945312 1.726562 -1.507812 1.3125 -2.21875 C 0.894531 -2.925781 0.6875 -3.726562 0.6875 -4.625 C 0.6875 -5.507812 0.894531 -6.304688 1.3125 -7.015625 C 1.726562 -7.734375 2.304688 -8.296875 3.046875 -8.703125 C 3.796875 -9.117188 4.628906 -9.328125 5.546875 -9.328125 C 6.460938 -9.328125 7.285156 -9.125 8.015625 -8.71875 C 8.753906 -8.3125 9.332031 -7.75 9.75 -7.03125 C 10.175781 -6.3125 10.390625 -5.507812 10.390625 -4.625 C 10.390625 -3.726562 10.175781 -2.921875 9.75 -2.203125 C 9.332031 -1.492188 8.753906 -0.9375 8.015625 -0.53125 C 7.285156 -0.125 6.460938 0.078125 5.546875 0.078125 Z M 5.546875 -0.796875 C 6.273438 -0.796875 6.929688 -0.957031 7.515625 -1.28125 C 8.109375 -1.613281 8.570312 -2.070312 8.90625 -2.65625 C 9.238281 -3.238281 9.40625 -3.894531 9.40625 -4.625 C 9.40625 -5.34375 9.238281 -5.992188 8.90625 -6.578125 C 8.570312 -7.160156 8.109375 -7.617188 7.515625 -7.953125 C 6.929688 -8.285156 6.273438 -8.453125 5.546875 -8.453125 C 4.816406 -8.453125 4.15625 -8.285156 3.5625 -7.953125 C 2.96875 -7.617188 2.5 -7.160156 2.15625 -6.578125 C 1.820312 -5.992188 1.65625 -5.34375 1.65625 -4.625 C 1.65625 -3.894531 1.820312 -3.238281 2.15625 -2.65625 C 2.5 -2.070312 2.96875 -1.613281 3.5625 -1.28125 C 4.15625 -0.957031 4.816406 -0.796875 5.546875 -0.796875 Z M 5.546875 -0.796875 "/></g></g></g><g fill="#555555" fill-opacity="1"><g transform="translate(325.911591, 58.576255)"><g><path d="M 1.5 -9.25 L 2.484375 -9.25 L 2.484375 -0.84375 L 7.65625 -0.84375 L 7.65625 0 L 1.5 0 Z M 1.5 -9.25 "/></g></g></g><g fill="#555555" fill-opacity="1"><g transform="translate(333.640931, 58.576255)"><g><path d="M 8.046875 -0.84375 L 8.046875 0 L 1.5 0 L 1.5 -9.25 L 7.84375 -9.25 L 7.84375 -8.390625 L 2.484375 -8.390625 L 2.484375 -5.109375 L 7.265625 -5.109375 L 7.265625 -4.28125 L 2.484375 -4.28125 L 2.484375 -0.84375 Z M 8.046875 -0.84375 "/></g></g></g></svg>