<svg xmlns="http://www.w3.org/2000/svg" xmlns:xlink="http://www.w3.org/1999/xlink" width="500" zoomAndPan="magnify" viewBox="0 0 375 74.999997" height="100" preserveAspectRatio="xMidYMid meet" version="1.0"><defs><g/></defs><g fill="#ffffff" fill-opacity="1"><g transform="translate(38.964405, 39.389471)"><g><path d="M 23.578125 0 L 23.515625 -12.46875 L 17.46875 -2.3125 L 14.515625 -2.3125 L 8.5 -12.125 L 8.5 0 L 2.34375 0 L 2.34375 -23.515625 L 7.828125 -23.515625 L 16.09375 -9.9375 L 24.15625 -23.515625 L 29.625 -23.515625 L 29.703125 0 Z M 23.578125 0 "/></g></g></g><g fill="#ffffff" fill-opacity="1"><g transform="translate(68.765064, 39.389471)"><g><path d="M 11.1875 0.296875 C 9.238281 0.296875 7.476562 -0.101562 5.90625 -0.90625 C 4.34375 -1.707031 3.117188 -2.828125 2.234375 -4.265625 C 1.347656 -5.703125 0.90625 -7.328125 0.90625 -9.140625 C 0.90625 -10.929688 1.347656 -12.539062 2.234375 -13.96875 C 3.117188 -15.40625 4.335938 -16.519531 5.890625 -17.3125 C 7.453125 -18.113281 9.21875 -18.515625 11.1875 -18.515625 C 13.15625 -18.515625 14.921875 -18.113281 16.484375 -17.3125 C 18.054688 -16.519531 19.28125 -15.410156 20.15625 -13.984375 C 21.03125 -12.566406 21.46875 -10.953125 21.46875 -9.140625 C 21.46875 -7.328125 21.03125 -5.703125 20.15625 -4.265625 C 19.28125 -2.828125 18.054688 -1.707031 16.484375 -0.90625 C 14.921875 -0.101562 13.15625 0.296875 11.1875 0.296875 Z M 11.1875 -4.765625 C 12.300781 -4.765625 13.21875 -5.148438 13.9375 -5.921875 C 14.65625 -6.703125 15.015625 -7.773438 15.015625 -9.140625 C 15.015625 -10.484375 14.65625 -11.535156 13.9375 -12.296875 C 13.21875 -13.054688 12.300781 -13.4375 11.1875 -13.4375 C 10.0625 -13.4375 9.140625 -13.054688 8.421875 -12.296875 C 7.710938 -11.535156 7.359375 -10.484375 7.359375 -9.140625 C 7.359375 -7.773438 7.710938 -6.703125 8.421875 -5.921875 C 9.140625 -5.148438 10.0625 -4.765625 11.1875 -4.765625 Z M 11.1875 -4.765625 "/></g></g></g><g fill="#ffffff" fill-opacity="1"><g transform="translate(88.889583, 39.389471)"><g><path d="M 13.90625 -18.515625 C 16.164062 -18.515625 17.984375 -17.84375 19.359375 -16.5 C 20.742188 -15.15625 21.4375 -13.125 21.4375 -10.40625 L 21.4375 0 L 15.046875 0 L 15.046875 -9.375 C 15.046875 -11.851562 14.050781 -13.09375 12.0625 -13.09375 C 10.957031 -13.09375 10.078125 -12.734375 9.421875 -12.015625 C 8.765625 -11.304688 8.4375 -10.234375 8.4375 -8.796875 L 8.4375 0 L 2.046875 0 L 2.046875 -18.203125 L 8.125 -18.203125 L 8.125 -16.21875 C 8.84375 -16.957031 9.691406 -17.523438 10.671875 -17.921875 C 11.660156 -18.316406 12.738281 -18.515625 13.90625 -18.515625 Z M 13.90625 -18.515625 "/></g></g></g><g fill="#ffffff" fill-opacity="1"><g transform="translate(110.022041, 39.389471)"><g><path d="M 2.046875 -18.203125 L 8.4375 -18.203125 L 8.4375 0 L 2.046875 0 Z M 5.234375 -20.21875 C 4.066406 -20.21875 3.125 -20.539062 2.40625 -21.1875 C 1.695312 -21.84375 1.34375 -22.648438 1.34375 -23.609375 C 1.34375 -24.578125 1.695312 -25.382812 2.40625 -26.03125 C 3.125 -26.6875 4.066406 -27.015625 5.234375 -27.015625 C 6.398438 -27.015625 7.335938 -26.703125 8.046875 -26.078125 C 8.765625 -25.460938 9.125 -24.675781 9.125 -23.71875 C 9.125 -22.707031 8.765625 -21.867188 8.046875 -21.203125 C 7.335938 -20.546875 6.398438 -20.21875 5.234375 -20.21875 Z M 5.234375 -20.21875 "/></g></g></g><g fill="#ffffff" fill-opacity="1"><g transform="translate(118.286569, 39.389471)"><g><path d="M 14.609375 -0.734375 C 14.078125 -0.398438 13.421875 -0.144531 12.640625 0.03125 C 11.867188 0.207031 11.046875 0.296875 10.171875 0.296875 C 7.804688 0.296875 5.984375 -0.28125 4.703125 -1.4375 C 3.421875 -2.601562 2.78125 -4.34375 2.78125 -6.65625 L 2.78125 -12.765625 L 0.140625 -12.765625 L 0.140625 -17.53125 L 2.78125 -17.53125 L 2.78125 -22.265625 L 9.171875 -22.265625 L 9.171875 -17.53125 L 13.34375 -17.53125 L 13.34375 -12.765625 L 9.171875 -12.765625 L 9.171875 -6.71875 C 9.171875 -6.070312 9.34375 -5.5625 9.6875 -5.1875 C 10.039062 -4.820312 10.503906 -4.640625 11.078125 -4.640625 C 11.816406 -4.640625 12.46875 -4.828125 13.03125 -5.203125 Z M 14.609375 -0.734375 "/></g></g></g><g fill="#ffffff" fill-opacity="1"><g transform="translate(131.05319, 39.389471)"><g><path d="M 11.1875 0.296875 C 9.238281 0.296875 7.476562 -0.101562 5.90625 -0.90625 C 4.34375 -1.707031 3.117188 -2.828125 2.234375 -4.265625 C 1.347656 -5.703125 0.90625 -7.328125 0.90625 -9.140625 C 0.90625 -10.929688 1.347656 -12.539062 2.234375 -13.96875 C 3.117188 -15.40625 4.335938 -16.519531 5.890625 -17.3125 C 7.453125 -18.113281 9.21875 -18.515625 11.1875 -18.515625 C 13.15625 -18.515625 14.921875 -18.113281 16.484375 -17.3125 C 18.054688 -16.519531 19.28125 -15.410156 20.15625 -13.984375 C 21.03125 -12.566406 21.46875 -10.953125 21.46875 -9.140625 C 21.46875 -7.328125 21.03125 -5.703125 20.15625 -4.265625 C 19.28125 -2.828125 18.054688 -1.707031 16.484375 -0.90625 C 14.921875 -0.101562 13.15625 0.296875 11.1875 0.296875 Z M 11.1875 -4.765625 C 12.300781 -4.765625 13.21875 -5.148438 13.9375 -5.921875 C 14.65625 -6.703125 15.015625 -7.773438 15.015625 -9.140625 C 15.015625 -10.484375 14.65625 -11.535156 13.9375 -12.296875 C 13.21875 -13.054688 12.300781 -13.4375 11.1875 -13.4375 C 10.0625 -13.4375 9.140625 -13.054688 8.421875 -12.296875 C 7.710938 -11.535156 7.359375 -10.484375 7.359375 -9.140625 C 7.359375 -7.773438 7.710938 -6.703125 8.421875 -5.921875 C 9.140625 -5.148438 10.0625 -4.765625 11.1875 -4.765625 Z M 11.1875 -4.765625 "/></g></g></g><g fill="#ffffff" fill-opacity="1"><g transform="translate(151.17771, 39.389471)"><g><path d="M 8.125 -16.03125 C 8.78125 -16.851562 9.628906 -17.472656 10.671875 -17.890625 C 11.710938 -18.304688 12.90625 -18.515625 14.25 -18.515625 L 14.25 -12.765625 C 13.664062 -12.828125 13.179688 -12.859375 12.796875 -12.859375 C 11.429688 -12.859375 10.363281 -12.488281 9.59375 -11.75 C 8.820312 -11.019531 8.4375 -9.890625 8.4375 -8.359375 L 8.4375 0 L 2.046875 0 L 2.046875 -18.203125 L 8.125 -18.203125 Z M 8.125 -16.03125 "/></g></g></g><g fill="#ffffff" fill-opacity="1"><g transform="translate(163.809938, 39.389471)"><g><path d="M 2.046875 -18.203125 L 8.4375 -18.203125 L 8.4375 0 L 2.046875 0 Z M 5.234375 -20.21875 C 4.066406 -20.21875 3.125 -20.539062 2.40625 -21.1875 C 1.695312 -21.84375 1.34375 -22.648438 1.34375 -23.609375 C 1.34375 -24.578125 1.695312 -25.382812 2.40625 -26.03125 C 3.125 -26.6875 4.066406 -27.015625 5.234375 -27.015625 C 6.398438 -27.015625 7.335938 -26.703125 8.046875 -26.078125 C 8.765625 -25.460938 9.125 -24.675781 9.125 -23.71875 C 9.125 -22.707031 8.765625 -21.867188 8.046875 -21.203125 C 7.335938 -20.546875 6.398438 -20.21875 5.234375 -20.21875 Z M 5.234375 -20.21875 "/></g></g></g><g fill="#ffffff" fill-opacity="1"><g transform="translate(172.07446, 39.389471)"><g><path d="M 13.90625 -18.515625 C 16.164062 -18.515625 17.984375 -17.84375 19.359375 -16.5 C 20.742188 -15.15625 21.4375 -13.125 21.4375 -10.40625 L 21.4375 0 L 15.046875 0 L 15.046875 -9.375 C 15.046875 -11.851562 14.050781 -13.09375 12.0625 -13.09375 C 10.957031 -13.09375 10.078125 -12.734375 9.421875 -12.015625 C 8.765625 -11.304688 8.4375 -10.234375 8.4375 -8.796875 L 8.4375 0 L 2.046875 0 L 2.046875 -18.203125 L 8.125 -18.203125 L 8.125 -16.21875 C 8.84375 -16.957031 9.691406 -17.523438 10.671875 -17.921875 C 11.660156 -18.316406 12.738281 -18.515625 13.90625 -18.515625 Z M 13.90625 -18.515625 "/></g></g></g><g fill="#ffffff" fill-opacity="1"><g transform="translate(193.206912, 39.389471)"><g><path d="M 21.640625 -18.203125 L 21.640625 -3.328125 C 21.640625 0.0546875 20.71875 2.59375 18.875 4.28125 C 17.039062 5.96875 14.398438 6.8125 10.953125 6.8125 C 9.160156 6.8125 7.476562 6.609375 5.90625 6.203125 C 4.34375 5.804688 3.015625 5.21875 1.921875 4.4375 L 4.234375 -0.03125 C 4.972656 0.570312 5.90625 1.046875 7.03125 1.390625 C 8.164062 1.742188 9.28125 1.921875 10.375 1.921875 C 12.0625 1.921875 13.296875 1.550781 14.078125 0.8125 C 14.859375 0.0703125 15.25 -1.023438 15.25 -2.484375 L 15.25 -3.09375 C 14.019531 -1.65625 12.21875 -0.9375 9.84375 -0.9375 C 8.226562 -0.9375 6.738281 -1.300781 5.375 -2.03125 C 4.007812 -2.757812 2.921875 -3.789062 2.109375 -5.125 C 1.304688 -6.457031 0.90625 -7.992188 0.90625 -9.734375 C 0.90625 -11.460938 1.304688 -12.992188 2.109375 -14.328125 C 2.921875 -15.660156 4.007812 -16.691406 5.375 -17.421875 C 6.738281 -18.148438 8.226562 -18.515625 9.84375 -18.515625 C 12.4375 -18.515625 14.335938 -17.671875 15.546875 -15.984375 L 15.546875 -18.203125 Z M 11.359375 -6.015625 C 12.492188 -6.015625 13.4375 -6.359375 14.1875 -7.046875 C 14.9375 -7.742188 15.3125 -8.640625 15.3125 -9.734375 C 15.3125 -10.835938 14.941406 -11.726562 14.203125 -12.40625 C 13.460938 -13.09375 12.515625 -13.4375 11.359375 -13.4375 C 10.191406 -13.4375 9.234375 -13.09375 8.484375 -12.40625 C 7.734375 -11.726562 7.359375 -10.835938 7.359375 -9.734375 C 7.359375 -8.640625 7.738281 -7.742188 8.5 -7.046875 C 9.257812 -6.359375 10.210938 -6.015625 11.359375 -6.015625 Z M 11.359375 -6.015625 "/></g></g></g><g fill="#ffffff" fill-opacity="1"><g transform="translate(214.64174, 39.389471)"><g><path d="M 10.609375 0.46875 C 8.710938 0.46875 6.867188 0.234375 5.078125 -0.234375 C 3.285156 -0.703125 1.828125 -1.328125 0.703125 -2.109375 L 2.890625 -7.015625 C 3.941406 -6.328125 5.160156 -5.769531 6.546875 -5.34375 C 7.941406 -4.914062 9.3125 -4.703125 10.65625 -4.703125 C 13.207031 -4.703125 14.484375 -5.34375 14.484375 -6.625 C 14.484375 -7.289062 14.117188 -7.785156 13.390625 -8.109375 C 12.660156 -8.429688 11.488281 -8.773438 9.875 -9.140625 C 8.101562 -9.515625 6.625 -9.921875 5.4375 -10.359375 C 4.25 -10.796875 3.226562 -11.492188 2.375 -12.453125 C 1.53125 -13.421875 1.109375 -14.722656 1.109375 -16.359375 C 1.109375 -17.796875 1.5 -19.085938 2.28125 -20.234375 C 3.0625 -21.390625 4.226562 -22.300781 5.78125 -22.96875 C 7.34375 -23.644531 9.253906 -23.984375 11.515625 -23.984375 C 13.066406 -23.984375 14.59375 -23.804688 16.09375 -23.453125 C 17.59375 -23.109375 18.914062 -22.601562 20.0625 -21.9375 L 18 -17 C 15.757812 -18.207031 13.585938 -18.8125 11.484375 -18.8125 C 10.160156 -18.8125 9.195312 -18.613281 8.59375 -18.21875 C 7.988281 -17.832031 7.6875 -17.328125 7.6875 -16.703125 C 7.6875 -16.066406 8.046875 -15.59375 8.765625 -15.28125 C 9.484375 -14.96875 10.640625 -14.644531 12.234375 -14.3125 C 14.023438 -13.925781 15.503906 -13.515625 16.671875 -13.078125 C 17.847656 -12.640625 18.867188 -11.945312 19.734375 -11 C 20.597656 -10.050781 21.03125 -8.757812 21.03125 -7.125 C 21.03125 -5.707031 20.632812 -4.425781 19.84375 -3.28125 C 19.0625 -2.144531 17.882812 -1.234375 16.3125 -0.546875 C 14.75 0.128906 12.847656 0.46875 10.609375 0.46875 Z M 10.609375 0.46875 "/></g></g></g><g fill="#ffffff" fill-opacity="1"><g transform="translate(234.127902, 39.389471)"><g><path d="M 21.234375 -18.203125 L 13.375 0.734375 C 12.457031 2.972656 11.335938 4.546875 10.015625 5.453125 C 8.691406 6.359375 7.078125 6.8125 5.171875 6.8125 C 4.210938 6.8125 3.242188 6.660156 2.265625 6.359375 C 1.296875 6.054688 0.507812 5.660156 -0.09375 5.171875 L 2.109375 0.703125 C 2.472656 1.035156 2.90625 1.296875 3.40625 1.484375 C 3.914062 1.679688 4.425781 1.78125 4.9375 1.78125 C 5.539062 1.78125 6.035156 1.65625 6.421875 1.40625 C 6.816406 1.164062 7.148438 0.773438 7.421875 0.234375 L -0.375 -18.203125 L 6.1875 -18.203125 L 10.65625 -7.09375 L 15.15625 -18.203125 Z M 21.234375 -18.203125 "/></g></g></g><g fill="#ffffff" fill-opacity="1"><g transform="translate(252.706926, 39.389471)"><g><path d="M 8.671875 0.296875 C 7.140625 0.296875 5.632812 0.125 4.15625 -0.21875 C 2.6875 -0.5625 1.503906 -1.015625 0.609375 -1.578125 L 2.515625 -5.953125 C 3.347656 -5.429688 4.332031 -5.019531 5.46875 -4.71875 C 6.613281 -4.414062 7.75 -4.265625 8.875 -4.265625 C 9.894531 -4.265625 10.625 -4.367188 11.0625 -4.578125 C 11.5 -4.796875 11.71875 -5.109375 11.71875 -5.515625 C 11.71875 -5.910156 11.453125 -6.191406 10.921875 -6.359375 C 10.398438 -6.535156 9.570312 -6.703125 8.4375 -6.859375 C 6.976562 -7.035156 5.738281 -7.269531 4.71875 -7.5625 C 3.695312 -7.851562 2.816406 -8.390625 2.078125 -9.171875 C 1.335938 -9.953125 0.96875 -11.050781 0.96875 -12.46875 C 0.96875 -13.625 1.316406 -14.65625 2.015625 -15.5625 C 2.710938 -16.476562 3.722656 -17.195312 5.046875 -17.71875 C 6.378906 -18.25 7.976562 -18.515625 9.84375 -18.515625 C 11.164062 -18.515625 12.472656 -18.378906 13.765625 -18.109375 C 15.066406 -17.835938 16.15625 -17.457031 17.03125 -16.96875 L 15.109375 -12.625 C 13.503906 -13.519531 11.757812 -13.96875 9.875 -13.96875 C 8.863281 -13.96875 8.125 -13.847656 7.65625 -13.609375 C 7.1875 -13.378906 6.953125 -13.078125 6.953125 -12.703125 C 6.953125 -12.273438 7.207031 -11.976562 7.71875 -11.8125 C 8.238281 -11.644531 9.09375 -11.46875 10.28125 -11.28125 C 11.78125 -11.0625 13.019531 -10.804688 14 -10.515625 C 14.988281 -10.222656 15.847656 -9.691406 16.578125 -8.921875 C 17.304688 -8.148438 17.671875 -7.066406 17.671875 -5.671875 C 17.671875 -4.535156 17.320312 -3.515625 16.625 -2.609375 C 15.9375 -1.703125 14.910156 -0.988281 13.546875 -0.46875 C 12.191406 0.0390625 10.566406 0.296875 8.671875 0.296875 Z M 8.671875 0.296875 "/></g></g></g><g fill="#ffffff" fill-opacity="1"><g transform="translate(268.833321, 39.389471)"><g><path d="M 14.609375 -0.734375 C 14.078125 -0.398438 13.421875 -0.144531 12.640625 0.03125 C 11.867188 0.207031 11.046875 0.296875 10.171875 0.296875 C 7.804688 0.296875 5.984375 -0.28125 4.703125 -1.4375 C 3.421875 -2.601562 2.78125 -4.34375 2.78125 -6.65625 L 2.78125 -12.765625 L 0.140625 -12.765625 L 0.140625 -17.53125 L 2.78125 -17.53125 L 2.78125 -22.265625 L 9.171875 -22.265625 L 9.171875 -17.53125 L 13.34375 -17.53125 L 13.34375 -12.765625 L 9.171875 -12.765625 L 9.171875 -6.71875 C 9.171875 -6.070312 9.34375 -5.5625 9.6875 -5.1875 C 10.039062 -4.820312 10.503906 -4.640625 11.078125 -4.640625 C 11.816406 -4.640625 12.46875 -4.828125 13.03125 -5.203125 Z M 14.609375 -0.734375 "/></g></g></g><g fill="#ffffff" fill-opacity="1"><g transform="translate(281.599937, 39.389471)"><g><path d="M 20.65625 -9.0625 C 20.65625 -9.019531 20.625 -8.492188 20.5625 -7.484375 L 7.328125 -7.484375 C 7.585938 -6.546875 8.101562 -5.820312 8.875 -5.3125 C 9.65625 -4.8125 10.628906 -4.5625 11.796875 -4.5625 C 12.660156 -4.5625 13.410156 -4.6875 14.046875 -4.9375 C 14.691406 -5.1875 15.335938 -5.585938 15.984375 -6.140625 L 19.34375 -2.65625 C 17.582031 -0.6875 15 0.296875 11.59375 0.296875 C 9.457031 0.296875 7.582031 -0.101562 5.96875 -0.90625 C 4.363281 -1.707031 3.117188 -2.828125 2.234375 -4.265625 C 1.347656 -5.703125 0.90625 -7.328125 0.90625 -9.140625 C 0.90625 -10.929688 1.335938 -12.535156 2.203125 -13.953125 C 3.066406 -15.378906 4.257812 -16.492188 5.78125 -17.296875 C 7.300781 -18.109375 9.015625 -18.515625 10.921875 -18.515625 C 12.734375 -18.515625 14.378906 -18.140625 15.859375 -17.390625 C 17.335938 -16.640625 18.503906 -15.550781 19.359375 -14.125 C 20.222656 -12.707031 20.65625 -11.019531 20.65625 -9.0625 Z M 10.953125 -13.96875 C 9.960938 -13.96875 9.132812 -13.6875 8.46875 -13.125 C 7.8125 -12.570312 7.394531 -11.8125 7.21875 -10.84375 L 14.6875 -10.84375 C 14.5 -11.8125 14.070312 -12.570312 13.40625 -13.125 C 12.75 -13.6875 11.929688 -13.96875 10.953125 -13.96875 Z M 10.953125 -13.96875 "/></g></g></g><g fill="#ffffff" fill-opacity="1"><g transform="translate(300.918112, 39.389471)"><g><path d="M 25.765625 -18.515625 C 28.003906 -18.515625 29.789062 -17.84375 31.125 -16.5 C 32.457031 -15.15625 33.125 -13.125 33.125 -10.40625 L 33.125 0 L 26.734375 0 L 26.734375 -9.375 C 26.734375 -10.644531 26.492188 -11.582031 26.015625 -12.1875 C 25.535156 -12.789062 24.859375 -13.09375 23.984375 -13.09375 C 23.023438 -13.09375 22.253906 -12.753906 21.671875 -12.078125 C 21.085938 -11.410156 20.796875 -10.394531 20.796875 -9.03125 L 20.796875 0 L 14.40625 0 L 14.40625 -9.375 C 14.40625 -11.851562 13.488281 -13.09375 11.65625 -13.09375 C 10.664062 -13.09375 9.878906 -12.753906 9.296875 -12.078125 C 8.722656 -11.410156 8.4375 -10.394531 8.4375 -9.03125 L 8.4375 0 L 2.046875 0 L 2.046875 -18.203125 L 8.125 -18.203125 L 8.125 -16.296875 C 8.800781 -17.035156 9.601562 -17.585938 10.53125 -17.953125 C 11.457031 -18.328125 12.472656 -18.515625 13.578125 -18.515625 C 14.847656 -18.515625 15.988281 -18.273438 17 -17.796875 C 18.007812 -17.328125 18.828125 -16.613281 19.453125 -15.65625 C 20.171875 -16.570312 21.078125 -17.273438 22.171875 -17.765625 C 23.265625 -18.265625 24.460938 -18.515625 25.765625 -18.515625 Z M 25.765625 -18.515625 "/></g></g></g><g fill="#ffffff" fill-opacity="1"><g transform="translate(34.335708, 64.141991)"><g><path d="M 4.90625 0.09375 C 4.070312 0.09375 3.273438 -0.0351562 2.515625 -0.296875 C 1.753906 -0.566406 1.164062 -0.921875 0.75 -1.359375 L 1.21875 -2.265625 C 1.625 -1.859375 2.160156 -1.53125 2.828125 -1.28125 C 3.503906 -1.03125 4.195312 -0.90625 4.90625 -0.90625 C 5.914062 -0.90625 6.671875 -1.085938 7.171875 -1.453125 C 7.671875 -1.828125 7.921875 -2.304688 7.921875 -2.890625 C 7.921875 -3.335938 7.785156 -3.695312 7.515625 -3.96875 C 7.242188 -4.238281 6.910156 -4.441406 6.515625 -4.578125 C 6.117188 -4.722656 5.566406 -4.882812 4.859375 -5.0625 C 4.015625 -5.269531 3.34375 -5.472656 2.84375 -5.671875 C 2.34375 -5.867188 1.914062 -6.171875 1.5625 -6.578125 C 1.207031 -6.984375 1.03125 -7.53125 1.03125 -8.21875 C 1.03125 -8.789062 1.175781 -9.304688 1.46875 -9.765625 C 1.769531 -10.234375 2.226562 -10.601562 2.84375 -10.875 C 3.46875 -11.15625 4.238281 -11.296875 5.15625 -11.296875 C 5.789062 -11.296875 6.414062 -11.207031 7.03125 -11.03125 C 7.644531 -10.851562 8.175781 -10.609375 8.625 -10.296875 L 8.21875 -9.359375 C 7.75 -9.671875 7.25 -9.898438 6.71875 -10.046875 C 6.1875 -10.203125 5.664062 -10.28125 5.15625 -10.28125 C 4.175781 -10.28125 3.4375 -10.09375 2.9375 -9.71875 C 2.4375 -9.34375 2.1875 -8.851562 2.1875 -8.25 C 2.1875 -7.800781 2.320312 -7.441406 2.59375 -7.171875 C 2.875 -6.898438 3.21875 -6.691406 3.625 -6.546875 C 4.03125 -6.410156 4.582031 -6.253906 5.28125 -6.078125 C 6.101562 -5.878906 6.765625 -5.679688 7.265625 -5.484375 C 7.773438 -5.285156 8.207031 -4.984375 8.5625 -4.578125 C 8.914062 -4.179688 9.09375 -3.640625 9.09375 -2.953125 C 9.09375 -2.390625 8.9375 -1.875 8.625 -1.40625 C 8.320312 -0.945312 7.851562 -0.582031 7.21875 -0.3125 C 6.59375 -0.0390625 5.820312 0.09375 4.90625 0.09375 Z M 4.90625 0.09375 "/></g></g></g><g fill="#ffffff" fill-opacity="1"><g transform="translate(44.12534, 64.141991)"><g><path d="M 1.828125 -11.203125 L 3.015625 -11.203125 L 3.015625 0 L 1.828125 0 Z M 1.828125 -11.203125 "/></g></g></g><g fill="#ffffff" fill-opacity="1"><g transform="translate(48.908171, 64.141991)"><g><path d="M 4.90625 0.09375 C 4.070312 0.09375 3.273438 -0.0351562 2.515625 -0.296875 C 1.753906 -0.566406 1.164062 -0.921875 0.75 -1.359375 L 1.21875 -2.265625 C 1.625 -1.859375 2.160156 -1.53125 2.828125 -1.28125 C 3.503906 -1.03125 4.195312 -0.90625 4.90625 -0.90625 C 5.914062 -0.90625 6.671875 -1.085938 7.171875 -1.453125 C 7.671875 -1.828125 7.921875 -2.304688 7.921875 -2.890625 C 7.921875 -3.335938 7.785156 -3.695312 7.515625 -3.96875 C 7.242188 -4.238281 6.910156 -4.441406 6.515625 -4.578125 C 6.117188 -4.722656 5.566406 -4.882812 4.859375 -5.0625 C 4.015625 -5.269531 3.34375 -5.472656 2.84375 -5.671875 C 2.34375 -5.867188 1.914062 -6.171875 1.5625 -6.578125 C 1.207031 -6.984375 1.03125 -7.53125 1.03125 -8.21875 C 1.03125 -8.789062 1.175781 -9.304688 1.46875 -9.765625 C 1.769531 -10.234375 2.226562 -10.601562 2.84375 -10.875 C 3.46875 -11.15625 4.238281 -11.296875 5.15625 -11.296875 C 5.789062 -11.296875 6.414062 -11.207031 7.03125 -11.03125 C 7.644531 -10.851562 8.175781 -10.609375 8.625 -10.296875 L 8.21875 -9.359375 C 7.75 -9.671875 7.25 -9.898438 6.71875 -10.046875 C 6.1875 -10.203125 5.664062 -10.28125 5.15625 -10.28125 C 4.175781 -10.28125 3.4375 -10.09375 2.9375 -9.71875 C 2.4375 -9.34375 2.1875 -8.851562 2.1875 -8.25 C 2.1875 -7.800781 2.320312 -7.441406 2.59375 -7.171875 C 2.875 -6.898438 3.21875 -6.691406 3.625 -6.546875 C 4.03125 -6.410156 4.582031 -6.253906 5.28125 -6.078125 C 6.101562 -5.878906 6.765625 -5.679688 7.265625 -5.484375 C 7.773438 -5.285156 8.207031 -4.984375 8.5625 -4.578125 C 8.914062 -4.179688 9.09375 -3.640625 9.09375 -2.953125 C 9.09375 -2.390625 8.9375 -1.875 8.625 -1.40625 C 8.320312 -0.945312 7.851562 -0.582031 7.21875 -0.3125 C 6.59375 -0.0390625 5.820312 0.09375 4.90625 0.09375 Z M 4.90625 0.09375 "/></g></g></g><g fill="#ffffff" fill-opacity="1"><g transform="translate(58.697803, 64.141991)"><g><path d="M 4 -10.171875 L 0.0625 -10.171875 L 0.0625 -11.203125 L 9.125 -11.203125 L 9.125 -10.171875 L 5.1875 -10.171875 L 5.1875 0 L 4 0 Z M 4 -10.171875 "/></g></g></g><g fill="#ffffff" fill-opacity="1"><g transform="translate(67.831586, 64.141991)"><g><path d="M 9.75 -1.03125 L 9.75 0 L 1.828125 0 L 1.828125 -11.203125 L 9.5 -11.203125 L 9.5 -10.171875 L 3.015625 -10.171875 L 3.015625 -6.1875 L 8.796875 -6.1875 L 8.796875 -5.1875 L 3.015625 -5.1875 L 3.015625 -1.03125 Z M 9.75 -1.03125 "/></g></g></g><g fill="#ffffff" fill-opacity="1"><g transform="translate(78.485008, 64.141991)"><g><path d="M 13.453125 -11.203125 L 13.453125 0 L 12.3125 0 L 12.3125 -8.953125 L 7.921875 -1.421875 L 7.359375 -1.421875 L 2.953125 -8.90625 L 2.953125 0 L 1.828125 0 L 1.828125 -11.203125 L 2.796875 -11.203125 L 7.65625 -2.890625 L 12.484375 -11.203125 Z M 13.453125 -11.203125 "/></g></g></g><g fill="#ffffff" fill-opacity="1"><g transform="translate(93.713327, 64.141991)"><g><path d="M 8.84375 -2.984375 L 2.609375 -2.984375 L 1.265625 0 L 0.03125 0 L 5.15625 -11.203125 L 6.3125 -11.203125 L 11.4375 0 L 10.1875 0 Z M 8.421875 -3.953125 L 5.734375 -9.96875 L 3.046875 -3.953125 Z M 8.421875 -3.953125 "/></g></g></g><g fill="#ffffff" fill-opacity="1"><g transform="translate(105.134564, 64.141991)"><g/></g></g><g fill="#ffffff" fill-opacity="1"><g transform="translate(109.277554, 64.141991)"><g><path d="M 1.828125 -11.203125 L 3.015625 -11.203125 L 3.015625 0 L 1.828125 0 Z M 1.828125 -11.203125 "/></g></g></g><g fill="#ffffff" fill-opacity="1"><g transform="translate(114.060383, 64.141991)"><g><path d="M 11.1875 -11.203125 L 11.1875 0 L 10.203125 0 L 3.015625 -9.09375 L 3.015625 0 L 1.828125 0 L 1.828125 -11.203125 L 2.796875 -11.203125 L 10.015625 -2.109375 L 10.015625 -11.203125 Z M 11.1875 -11.203125 "/></g></g></g><g fill="#ffffff" fill-opacity="1"><g transform="translate(127.017246, 64.141991)"><g><path d="M 4 -10.171875 L 0.0625 -10.171875 L 0.0625 -11.203125 L 9.125 -11.203125 L 9.125 -10.171875 L 5.1875 -10.171875 L 5.1875 0 L 4 0 Z M 4 -10.171875 "/></g></g></g><g fill="#ffffff" fill-opacity="1"><g transform="translate(136.151026, 64.141991)"><g><path d="M 9.75 -1.03125 L 9.75 0 L 1.828125 0 L 1.828125 -11.203125 L 9.5 -11.203125 L 9.5 -10.171875 L 3.015625 -10.171875 L 3.015625 -6.1875 L 8.796875 -6.1875 L 8.796875 -5.1875 L 3.015625 -5.1875 L 3.015625 -1.03125 Z M 9.75 -1.03125 "/></g></g></g><g fill="#ffffff" fill-opacity="1"><g transform="translate(146.804445, 64.141991)"><g><path d="M 1.828125 -11.203125 L 3.015625 -11.203125 L 3.015625 -1.03125 L 9.28125 -1.03125 L 9.28125 0 L 1.828125 0 Z M 1.828125 -11.203125 "/></g></g></g><g fill="#ffffff" fill-opacity="1"><g transform="translate(156.178174, 64.141991)"><g><path d="M 1.828125 -11.203125 L 3.015625 -11.203125 L 3.015625 0 L 1.828125 0 Z M 1.828125 -11.203125 "/></g></g></g><g fill="#ffffff" fill-opacity="1"><g transform="translate(160.961003, 64.141991)"><g><path d="M 9.71875 -5.59375 L 10.84375 -5.59375 L 10.84375 -1.328125 C 10.320312 -0.867188 9.703125 -0.515625 8.984375 -0.265625 C 8.273438 -0.0234375 7.523438 0.09375 6.734375 0.09375 C 5.617188 0.09375 4.613281 -0.148438 3.71875 -0.640625 C 2.820312 -1.128906 2.113281 -1.804688 1.59375 -2.671875 C 1.082031 -3.546875 0.828125 -4.519531 0.828125 -5.59375 C 0.828125 -6.675781 1.082031 -7.648438 1.59375 -8.515625 C 2.113281 -9.390625 2.820312 -10.070312 3.71875 -10.5625 C 4.613281 -11.050781 5.625 -11.296875 6.75 -11.296875 C 7.601562 -11.296875 8.382812 -11.160156 9.09375 -10.890625 C 9.8125 -10.617188 10.414062 -10.21875 10.90625 -9.6875 L 10.171875 -8.921875 C 9.285156 -9.796875 8.160156 -10.234375 6.796875 -10.234375 C 5.890625 -10.234375 5.070312 -10.035156 4.34375 -9.640625 C 3.613281 -9.242188 3.039062 -8.6875 2.625 -7.96875 C 2.207031 -7.257812 2 -6.46875 2 -5.59375 C 2 -4.71875 2.207031 -3.925781 2.625 -3.21875 C 3.039062 -2.519531 3.609375 -1.96875 4.328125 -1.5625 C 5.054688 -1.15625 5.875 -0.953125 6.78125 -0.953125 C 7.9375 -0.953125 8.914062 -1.242188 9.71875 -1.828125 Z M 9.71875 -5.59375 "/></g></g></g><g fill="#ffffff" fill-opacity="1"><g transform="translate(173.278026, 64.141991)"><g><path d="M 9.75 -1.03125 L 9.75 0 L 1.828125 0 L 1.828125 -11.203125 L 9.5 -11.203125 L 9.5 -10.171875 L 3.015625 -10.171875 L 3.015625 -6.1875 L 8.796875 -6.1875 L 8.796875 -5.1875 L 3.015625 -5.1875 L 3.015625 -1.03125 Z M 9.75 -1.03125 "/></g></g></g><g fill="#ffffff" fill-opacity="1"><g transform="translate(183.931445, 64.141991)"><g><path d="M 11.1875 -11.203125 L 11.1875 0 L 10.203125 0 L 3.015625 -9.09375 L 3.015625 0 L 1.828125 0 L 1.828125 -11.203125 L 2.796875 -11.203125 L 10.015625 -2.109375 L 10.015625 -11.203125 Z M 11.1875 -11.203125 "/></g></g></g><g fill="#ffffff" fill-opacity="1"><g transform="translate(196.888307, 64.141991)"><g><path d="M 4 -10.171875 L 0.0625 -10.171875 L 0.0625 -11.203125 L 9.125 -11.203125 L 9.125 -10.171875 L 5.1875 -10.171875 L 5.1875 0 L 4 0 Z M 4 -10.171875 "/></g></g></g><g fill="#ffffff" fill-opacity="1"><g transform="translate(206.022088, 64.141991)"><g><path d="M 9.75 -1.03125 L 9.75 0 L 1.828125 0 L 1.828125 -11.203125 L 9.5 -11.203125 L 9.5 -10.171875 L 3.015625 -10.171875 L 3.015625 -6.1875 L 8.796875 -6.1875 L 8.796875 -5.1875 L 3.015625 -5.1875 L 3.015625 -1.03125 Z M 9.75 -1.03125 "/></g></g></g><g fill="#ffffff" fill-opacity="1"><g transform="translate(216.675506, 64.141991)"><g/></g></g><g fill="#ffffff" fill-opacity="1"><g transform="translate(220.818496, 64.141991)"><g><path d="M 1.828125 -11.203125 L 6.390625 -11.203125 C 7.566406 -11.203125 8.609375 -10.960938 9.515625 -10.484375 C 10.421875 -10.015625 11.125 -9.351562 11.625 -8.5 C 12.132812 -7.65625 12.390625 -6.6875 12.390625 -5.59375 C 12.390625 -4.507812 12.132812 -3.539062 11.625 -2.6875 C 11.125 -1.84375 10.421875 -1.179688 9.515625 -0.703125 C 8.609375 -0.234375 7.566406 0 6.390625 0 L 1.828125 0 Z M 6.3125 -1.03125 C 7.300781 -1.03125 8.160156 -1.222656 8.890625 -1.609375 C 9.628906 -1.992188 10.203125 -2.53125 10.609375 -3.21875 C 11.015625 -3.90625 11.21875 -4.695312 11.21875 -5.59375 C 11.21875 -6.488281 11.015625 -7.28125 10.609375 -7.96875 C 10.203125 -8.664062 9.628906 -9.207031 8.890625 -9.59375 C 8.160156 -9.976562 7.300781 -10.171875 6.3125 -10.171875 L 3.015625 -10.171875 L 3.015625 -1.03125 Z M 6.3125 -1.03125 "/></g></g></g><g fill="#ffffff" fill-opacity="1"><g transform="translate(233.983321, 64.141991)"><g><path d="M 9.75 -1.03125 L 9.75 0 L 1.828125 0 L 1.828125 -11.203125 L 9.5 -11.203125 L 9.5 -10.171875 L 3.015625 -10.171875 L 3.015625 -6.1875 L 8.796875 -6.1875 L 8.796875 -5.1875 L 3.015625 -5.1875 L 3.015625 -1.03125 Z M 9.75 -1.03125 "/></g></g></g><g fill="#ffffff" fill-opacity="1"><g transform="translate(244.636739, 64.141991)"><g/></g></g><g fill="#ffffff" fill-opacity="1"><g transform="translate(248.779729, 64.141991)"><g><path d="M 6.6875 0.09375 C 5.582031 0.09375 4.582031 -0.148438 3.6875 -0.640625 C 2.800781 -1.128906 2.101562 -1.804688 1.59375 -2.671875 C 1.082031 -3.546875 0.828125 -4.519531 0.828125 -5.59375 C 0.828125 -6.675781 1.082031 -7.648438 1.59375 -8.515625 C 2.101562 -9.390625 2.804688 -10.070312 3.703125 -10.5625 C 4.597656 -11.050781 5.597656 -11.296875 6.703125 -11.296875 C 7.535156 -11.296875 8.300781 -11.15625 9 -10.875 C 9.707031 -10.601562 10.304688 -10.195312 10.796875 -9.65625 L 10.046875 -8.90625 C 9.171875 -9.789062 8.066406 -10.234375 6.734375 -10.234375 C 5.847656 -10.234375 5.039062 -10.03125 4.3125 -9.625 C 3.59375 -9.226562 3.023438 -8.675781 2.609375 -7.96875 C 2.203125 -7.257812 2 -6.46875 2 -5.59375 C 2 -4.71875 2.203125 -3.925781 2.609375 -3.21875 C 3.023438 -2.519531 3.59375 -1.96875 4.3125 -1.5625 C 5.039062 -1.15625 5.847656 -0.953125 6.734375 -0.953125 C 8.078125 -0.953125 9.179688 -1.398438 10.046875 -2.296875 L 10.796875 -1.546875 C 10.304688 -1.015625 9.707031 -0.609375 9 -0.328125 C 8.289062 -0.046875 7.519531 0.09375 6.6875 0.09375 Z M 6.6875 0.09375 "/></g></g></g><g fill="#ffffff" fill-opacity="1"><g transform="translate(260.232952, 64.141991)"><g><path d="M 6.71875 0.09375 C 5.613281 0.09375 4.609375 -0.148438 3.703125 -0.640625 C 2.804688 -1.140625 2.101562 -1.820312 1.59375 -2.6875 C 1.082031 -3.550781 0.828125 -4.519531 0.828125 -5.59375 C 0.828125 -6.675781 1.082031 -7.648438 1.59375 -8.515625 C 2.101562 -9.378906 2.804688 -10.054688 3.703125 -10.546875 C 4.609375 -11.046875 5.613281 -11.296875 6.71875 -11.296875 C 7.832031 -11.296875 8.832031 -11.050781 9.71875 -10.5625 C 10.613281 -10.070312 11.316406 -9.390625 11.828125 -8.515625 C 12.335938 -7.648438 12.59375 -6.675781 12.59375 -5.59375 C 12.59375 -4.519531 12.335938 -3.546875 11.828125 -2.671875 C 11.316406 -1.804688 10.613281 -1.128906 9.71875 -0.640625 C 8.832031 -0.148438 7.832031 0.09375 6.71875 0.09375 Z M 6.71875 -0.953125 C 7.601562 -0.953125 8.398438 -1.148438 9.109375 -1.546875 C 9.828125 -1.953125 10.390625 -2.507812 10.796875 -3.21875 C 11.203125 -3.925781 11.40625 -4.71875 11.40625 -5.59375 C 11.40625 -6.46875 11.203125 -7.257812 10.796875 -7.96875 C 10.390625 -8.6875 9.828125 -9.242188 9.109375 -9.640625 C 8.398438 -10.035156 7.601562 -10.234375 6.71875 -10.234375 C 5.832031 -10.234375 5.03125 -10.035156 4.3125 -9.640625 C 3.59375 -9.242188 3.023438 -8.6875 2.609375 -7.96875 C 2.203125 -7.257812 2 -6.46875 2 -5.59375 C 2 -4.71875 2.203125 -3.925781 2.609375 -3.21875 C 3.023438 -2.507812 3.59375 -1.953125 4.3125 -1.546875 C 5.03125 -1.148438 5.832031 -0.953125 6.71875 -0.953125 Z M 6.71875 -0.953125 "/></g></g></g><g fill="#ffffff" fill-opacity="1"><g transform="translate(273.605716, 64.141991)"><g><path d="M 11.1875 -11.203125 L 11.1875 0 L 10.203125 0 L 3.015625 -9.09375 L 3.015625 0 L 1.828125 0 L 1.828125 -11.203125 L 2.796875 -11.203125 L 10.015625 -2.109375 L 10.015625 -11.203125 Z M 11.1875 -11.203125 "/></g></g></g><g fill="#ffffff" fill-opacity="1"><g transform="translate(286.562578, 64.141991)"><g><path d="M 4 -10.171875 L 0.0625 -10.171875 L 0.0625 -11.203125 L 9.125 -11.203125 L 9.125 -10.171875 L 5.1875 -10.171875 L 5.1875 0 L 4 0 Z M 4 -10.171875 "/></g></g></g><g fill="#ffffff" fill-opacity="1"><g transform="translate(295.696359, 64.141991)"><g><path d="M 9.46875 0 L 6.90625 -3.59375 C 6.625 -3.5625 6.328125 -3.546875 6.015625 -3.546875 L 3.015625 -3.546875 L 3.015625 0 L 1.828125 0 L 1.828125 -11.203125 L 6.015625 -11.203125 C 7.441406 -11.203125 8.5625 -10.859375 9.375 -10.171875 C 10.1875 -9.492188 10.59375 -8.554688 10.59375 -7.359375 C 10.59375 -6.484375 10.367188 -5.742188 9.921875 -5.140625 C 9.484375 -4.535156 8.851562 -4.101562 8.03125 -3.84375 L 10.765625 0 Z M 5.984375 -4.5625 C 7.085938 -4.5625 7.929688 -4.804688 8.515625 -5.296875 C 9.109375 -5.785156 9.40625 -6.472656 9.40625 -7.359375 C 9.40625 -8.265625 9.109375 -8.957031 8.515625 -9.4375 C 7.929688 -9.925781 7.085938 -10.171875 5.984375 -10.171875 L 3.015625 -10.171875 L 3.015625 -4.5625 Z M 5.984375 -4.5625 "/></g></g></g><g fill="#ffffff" fill-opacity="1"><g transform="translate(307.213578, 64.141991)"><g><path d="M 6.71875 0.09375 C 5.613281 0.09375 4.609375 -0.148438 3.703125 -0.640625 C 2.804688 -1.140625 2.101562 -1.820312 1.59375 -2.6875 C 1.082031 -3.550781 0.828125 -4.519531 0.828125 -5.59375 C 0.828125 -6.675781 1.082031 -7.648438 1.59375 -8.515625 C 2.101562 -9.378906 2.804688 -10.054688 3.703125 -10.546875 C 4.609375 -11.046875 5.613281 -11.296875 6.71875 -11.296875 C 7.832031 -11.296875 8.832031 -11.050781 9.71875 -10.5625 C 10.613281 -10.070312 11.316406 -9.390625 11.828125 -8.515625 C 12.335938 -7.648438 12.59375 -6.675781 12.59375 -5.59375 C 12.59375 -4.519531 12.335938 -3.546875 11.828125 -2.671875 C 11.316406 -1.804688 10.613281 -1.128906 9.71875 -0.640625 C 8.832031 -0.148438 7.832031 0.09375 6.71875 0.09375 Z M 6.71875 -0.953125 C 7.601562 -0.953125 8.398438 -1.148438 9.109375 -1.546875 C 9.828125 -1.953125 10.390625 -2.507812 10.796875 -3.21875 C 11.203125 -3.925781 11.40625 -4.71875 11.40625 -5.59375 C 11.40625 -6.46875 11.203125 -7.257812 10.796875 -7.96875 C 10.390625 -8.6875 9.828125 -9.242188 9.109375 -9.640625 C 8.398438 -10.035156 7.601562 -10.234375 6.71875 -10.234375 C 5.832031 -10.234375 5.03125 -10.035156 4.3125 -9.640625 C 3.59375 -9.242188 3.023438 -8.6875 2.609375 -7.96875 C 2.203125 -7.257812 2 -6.46875 2 -5.59375 C 2 -4.71875 2.203125 -3.925781 2.609375 -3.21875 C 3.023438 -2.507812 3.59375 -1.953125 4.3125 -1.546875 C 5.03125 -1.148438 5.832031 -0.953125 6.71875 -0.953125 Z M 6.71875 -0.953125 "/></g></g></g><g fill="#ffffff" fill-opacity="1"><g transform="translate(320.586341, 64.141991)"><g><path d="M 1.828125 -11.203125 L 3.015625 -11.203125 L 3.015625 -1.03125 L 9.28125 -1.03125 L 9.28125 0 L 1.828125 0 Z M 1.828125 -11.203125 "/></g></g></g><g fill="#ffffff" fill-opacity="1"><g transform="translate(329.960082, 64.141991)"><g><path d="M 9.75 -1.03125 L 9.75 0 L 1.828125 0 L 1.828125 -11.203125 L 9.5 -11.203125 L 9.5 -10.171875 L 3.015625 -10.171875 L 3.015625 -6.1875 L 8.796875 -6.1875 L 8.796875 -5.1875 L 3.015625 -5.1875 L 3.015625 -1.03125 Z M 9.75 -1.03125 "/></g></g></g></svg>